G75*
%MOIN*%
%OFA0B0*%
%FSLAX25Y25*%
%IPPOS*%
%LPD*%
%AMOC8*
5,1,8,0,0,1.08239X$1,22.5*
%
%ADD10C,0.07677*%
%ADD11C,0.07400*%
%ADD12OC8,0.06800*%
%ADD13C,0.01600*%
%ADD14C,0.05906*%
%ADD15C,0.16598*%
D10*
X0072366Y0164886D03*
X0151106Y0164886D03*
D11*
X0166736Y0116736D03*
X0166736Y0106736D03*
X0196736Y0106736D03*
X0196736Y0116736D03*
X0176736Y0056736D03*
X0176736Y0046736D03*
X0176736Y0036736D03*
X0136736Y0036736D03*
X0136736Y0046736D03*
X0136736Y0056736D03*
X0126736Y0106736D03*
X0126736Y0116736D03*
X0096736Y0116736D03*
X0096736Y0106736D03*
X0056736Y0106736D03*
X0056736Y0116736D03*
X0026736Y0116736D03*
X0026736Y0106736D03*
X0046736Y0066736D03*
X0046736Y0056736D03*
X0046736Y0046736D03*
X0086736Y0046736D03*
X0086736Y0056736D03*
X0086736Y0066736D03*
D12*
X0096736Y0066736D03*
X0096736Y0056736D03*
X0096736Y0046736D03*
X0096736Y0036736D03*
X0126736Y0036736D03*
X0126736Y0046736D03*
X0126736Y0056736D03*
X0126736Y0066736D03*
D13*
X0050061Y0021304D02*
X0020536Y0021304D01*
X0020052Y0021787D02*
X0018826Y0023911D01*
X0018191Y0026280D01*
X0018111Y0027506D01*
X0018111Y0195966D01*
X0018191Y0197193D01*
X0018826Y0199562D01*
X0020052Y0201686D01*
X0021787Y0203420D01*
X0023911Y0204646D01*
X0026280Y0205281D01*
X0027506Y0205361D01*
X0195966Y0205361D01*
X0197193Y0205281D01*
X0199562Y0204646D01*
X0201686Y0203420D01*
X0203420Y0201686D01*
X0204646Y0199562D01*
X0205281Y0197193D01*
X0205361Y0195966D01*
X0205361Y0027506D01*
X0205281Y0026280D01*
X0204646Y0023911D01*
X0203420Y0021787D01*
X0201686Y0020052D01*
X0199562Y0018826D01*
X0197193Y0018191D01*
X0195966Y0018111D01*
X0027506Y0018111D01*
X0026280Y0018191D01*
X0023911Y0018826D01*
X0021787Y0020052D01*
X0020052Y0021787D01*
X0019409Y0022902D02*
X0048673Y0022902D01*
X0048821Y0022543D02*
X0050102Y0021262D01*
X0051775Y0020569D01*
X0053587Y0020569D01*
X0055260Y0021262D01*
X0056541Y0022543D01*
X0057234Y0024216D01*
X0057234Y0026028D01*
X0056541Y0027701D01*
X0055260Y0028982D01*
X0053587Y0029675D01*
X0051775Y0029675D01*
X0050102Y0028982D01*
X0048821Y0027701D01*
X0048128Y0026028D01*
X0048128Y0024216D01*
X0048821Y0022543D01*
X0048128Y0024501D02*
X0038354Y0024501D01*
X0038604Y0024604D02*
X0041388Y0027389D01*
X0042895Y0031027D01*
X0042895Y0034965D01*
X0041388Y0038604D01*
X0038604Y0041388D01*
X0034965Y0042895D01*
X0031027Y0042895D01*
X0027389Y0041388D01*
X0024604Y0038604D01*
X0023097Y0034965D01*
X0023097Y0031027D01*
X0024604Y0027389D01*
X0027389Y0024604D01*
X0031027Y0023097D01*
X0034965Y0023097D01*
X0038604Y0024604D01*
X0040099Y0026099D02*
X0048158Y0026099D01*
X0048820Y0027698D02*
X0041516Y0027698D01*
X0042178Y0029296D02*
X0050861Y0029296D01*
X0054501Y0029296D02*
X0168972Y0029296D01*
X0168212Y0028982D02*
X0166932Y0027701D01*
X0166239Y0026028D01*
X0166239Y0024216D01*
X0166932Y0022543D01*
X0168212Y0021262D01*
X0169886Y0020569D01*
X0171697Y0020569D01*
X0173370Y0021262D01*
X0174651Y0022543D01*
X0175344Y0024216D01*
X0175344Y0026028D01*
X0174651Y0027701D01*
X0173370Y0028982D01*
X0171697Y0029675D01*
X0169886Y0029675D01*
X0168212Y0028982D01*
X0166930Y0027698D02*
X0056542Y0027698D01*
X0057204Y0026099D02*
X0166268Y0026099D01*
X0166239Y0024501D02*
X0057234Y0024501D01*
X0056689Y0022902D02*
X0166783Y0022902D01*
X0168171Y0021304D02*
X0055301Y0021304D01*
X0042840Y0030895D02*
X0180632Y0030895D01*
X0180577Y0031027D02*
X0182084Y0027389D01*
X0184869Y0024604D01*
X0188507Y0023097D01*
X0192445Y0023097D01*
X0196084Y0024604D01*
X0198869Y0027389D01*
X0200376Y0031027D01*
X0200376Y0034965D01*
X0198869Y0038604D01*
X0196084Y0041388D01*
X0192445Y0042895D01*
X0188507Y0042895D01*
X0184869Y0041388D01*
X0182084Y0038604D01*
X0181988Y0038371D01*
X0181833Y0038847D01*
X0181440Y0039619D01*
X0180931Y0040319D01*
X0180319Y0040931D01*
X0179619Y0041440D01*
X0178847Y0041833D01*
X0178792Y0041851D01*
X0179738Y0042243D01*
X0181229Y0043734D01*
X0182036Y0045682D01*
X0182036Y0047790D01*
X0181229Y0049738D01*
X0179738Y0051229D01*
X0178515Y0051736D01*
X0179738Y0052243D01*
X0181229Y0053734D01*
X0182036Y0055682D01*
X0182036Y0057790D01*
X0181229Y0059738D01*
X0179738Y0061229D01*
X0177790Y0062036D01*
X0175682Y0062036D01*
X0173734Y0061229D01*
X0172243Y0059738D01*
X0171436Y0057790D01*
X0171436Y0055682D01*
X0172243Y0053734D01*
X0173734Y0052243D01*
X0174958Y0051736D01*
X0173734Y0051229D01*
X0172243Y0049738D01*
X0171436Y0047790D01*
X0171436Y0045682D01*
X0172243Y0043734D01*
X0173734Y0042243D01*
X0174680Y0041851D01*
X0174625Y0041833D01*
X0173854Y0041440D01*
X0173153Y0040931D01*
X0172541Y0040319D01*
X0172032Y0039619D01*
X0171639Y0038847D01*
X0171372Y0038024D01*
X0171236Y0037169D01*
X0171236Y0036822D01*
X0176650Y0036822D01*
X0176650Y0036650D01*
X0171236Y0036650D01*
X0171236Y0036303D01*
X0171372Y0035448D01*
X0171639Y0034625D01*
X0172032Y0033854D01*
X0172541Y0033153D01*
X0173153Y0032541D01*
X0173854Y0032032D01*
X0174625Y0031639D01*
X0175448Y0031372D01*
X0176303Y0031236D01*
X0176650Y0031236D01*
X0176650Y0036650D01*
X0176822Y0036650D01*
X0176822Y0031236D01*
X0177169Y0031236D01*
X0178024Y0031372D01*
X0178847Y0031639D01*
X0179619Y0032032D01*
X0180319Y0032541D01*
X0180577Y0032799D01*
X0180577Y0031027D01*
X0180577Y0032493D02*
X0180253Y0032493D01*
X0181294Y0029296D02*
X0172611Y0029296D01*
X0174652Y0027698D02*
X0181956Y0027698D01*
X0183374Y0026099D02*
X0175314Y0026099D01*
X0175344Y0024501D02*
X0185118Y0024501D01*
X0174800Y0022902D02*
X0204064Y0022902D01*
X0204804Y0024501D02*
X0195834Y0024501D01*
X0197579Y0026099D02*
X0205233Y0026099D01*
X0205361Y0027698D02*
X0198997Y0027698D01*
X0199659Y0029296D02*
X0205361Y0029296D01*
X0205361Y0030895D02*
X0200321Y0030895D01*
X0200376Y0032493D02*
X0205361Y0032493D01*
X0205361Y0034092D02*
X0200376Y0034092D01*
X0200075Y0035690D02*
X0205361Y0035690D01*
X0205361Y0037289D02*
X0199413Y0037289D01*
X0198585Y0038887D02*
X0205361Y0038887D01*
X0205361Y0040486D02*
X0196986Y0040486D01*
X0194403Y0042084D02*
X0205361Y0042084D01*
X0205361Y0043683D02*
X0181178Y0043683D01*
X0181870Y0045281D02*
X0205361Y0045281D01*
X0205361Y0046880D02*
X0182036Y0046880D01*
X0181751Y0048478D02*
X0196600Y0048478D01*
X0195771Y0048821D02*
X0197445Y0048128D01*
X0199256Y0048128D01*
X0200929Y0048821D01*
X0202210Y0050102D01*
X0202903Y0051775D01*
X0202903Y0053587D01*
X0202210Y0055260D01*
X0200929Y0056541D01*
X0199256Y0057234D01*
X0197445Y0057234D01*
X0195771Y0056541D01*
X0194491Y0055260D01*
X0193798Y0053587D01*
X0193798Y0051775D01*
X0194491Y0050102D01*
X0195771Y0048821D01*
X0194516Y0050077D02*
X0180891Y0050077D01*
X0178662Y0051675D02*
X0193839Y0051675D01*
X0193798Y0053274D02*
X0180769Y0053274D01*
X0181701Y0054872D02*
X0194330Y0054872D01*
X0195702Y0056471D02*
X0182036Y0056471D01*
X0181921Y0058069D02*
X0205361Y0058069D01*
X0205361Y0056471D02*
X0200999Y0056471D01*
X0202371Y0054872D02*
X0205361Y0054872D01*
X0205361Y0053274D02*
X0202903Y0053274D01*
X0202862Y0051675D02*
X0205361Y0051675D01*
X0205361Y0050077D02*
X0202185Y0050077D01*
X0200101Y0048478D02*
X0205361Y0048478D01*
X0205361Y0059668D02*
X0181259Y0059668D01*
X0179649Y0061266D02*
X0205361Y0061266D01*
X0205361Y0062865D02*
X0129936Y0062865D01*
X0128807Y0061736D02*
X0131736Y0064665D01*
X0131736Y0068807D01*
X0128807Y0071736D01*
X0124665Y0071736D01*
X0121736Y0068807D01*
X0121736Y0064665D01*
X0124665Y0061736D01*
X0121736Y0058807D01*
X0121736Y0054665D01*
X0124665Y0051736D01*
X0121736Y0048807D01*
X0121736Y0044665D01*
X0124665Y0041736D01*
X0121736Y0038807D01*
X0121736Y0034665D01*
X0124665Y0031736D01*
X0128807Y0031736D01*
X0131736Y0034665D01*
X0131736Y0034958D01*
X0132243Y0033734D01*
X0133734Y0032243D01*
X0135682Y0031436D01*
X0137790Y0031436D01*
X0139738Y0032243D01*
X0141229Y0033734D01*
X0142036Y0035682D01*
X0142036Y0037790D01*
X0141229Y0039738D01*
X0139738Y0041229D01*
X0138515Y0041736D01*
X0139738Y0042243D01*
X0141229Y0043734D01*
X0142036Y0045682D01*
X0142036Y0047790D01*
X0141229Y0049738D01*
X0139738Y0051229D01*
X0138515Y0051736D01*
X0139738Y0052243D01*
X0141229Y0053734D01*
X0142036Y0055682D01*
X0142036Y0057790D01*
X0141229Y0059738D01*
X0139738Y0061229D01*
X0137790Y0062036D01*
X0135682Y0062036D01*
X0133734Y0061229D01*
X0132243Y0059738D01*
X0131736Y0058515D01*
X0131736Y0058807D01*
X0128807Y0061736D01*
X0124665Y0061736D01*
X0128807Y0061736D01*
X0129277Y0061266D02*
X0133823Y0061266D01*
X0132214Y0059668D02*
X0130876Y0059668D01*
X0131736Y0054958D02*
X0132243Y0053734D01*
X0133734Y0052243D01*
X0134958Y0051736D01*
X0133734Y0051229D01*
X0132243Y0049738D01*
X0131736Y0048515D01*
X0131736Y0048807D01*
X0128807Y0051736D01*
X0124665Y0051736D01*
X0128807Y0051736D01*
X0131736Y0054665D01*
X0131736Y0054958D01*
X0131736Y0054872D02*
X0131772Y0054872D01*
X0132703Y0053274D02*
X0130345Y0053274D01*
X0128868Y0051675D02*
X0134811Y0051675D01*
X0132581Y0050077D02*
X0130467Y0050077D01*
X0131736Y0044958D02*
X0132243Y0043734D01*
X0133734Y0042243D01*
X0134958Y0041736D01*
X0133734Y0041229D01*
X0132243Y0039738D01*
X0131736Y0038515D01*
X0131736Y0038807D01*
X0128807Y0041736D01*
X0124665Y0041736D01*
X0128807Y0041736D01*
X0131736Y0044665D01*
X0131736Y0044958D01*
X0132294Y0043683D02*
X0130754Y0043683D01*
X0129155Y0042084D02*
X0134118Y0042084D01*
X0132990Y0040486D02*
X0130058Y0040486D01*
X0131656Y0038887D02*
X0131891Y0038887D01*
X0132095Y0034092D02*
X0131163Y0034092D01*
X0129564Y0032493D02*
X0133484Y0032493D01*
X0139988Y0032493D02*
X0173219Y0032493D01*
X0171911Y0034092D02*
X0141377Y0034092D01*
X0142036Y0035690D02*
X0171333Y0035690D01*
X0171255Y0037289D02*
X0142036Y0037289D01*
X0141582Y0038887D02*
X0171659Y0038887D01*
X0172708Y0040486D02*
X0140482Y0040486D01*
X0139355Y0042084D02*
X0174118Y0042084D01*
X0172294Y0043683D02*
X0141178Y0043683D01*
X0141870Y0045281D02*
X0171602Y0045281D01*
X0171436Y0046880D02*
X0142036Y0046880D01*
X0141751Y0048478D02*
X0171721Y0048478D01*
X0172581Y0050077D02*
X0140891Y0050077D01*
X0138662Y0051675D02*
X0174811Y0051675D01*
X0172703Y0053274D02*
X0140769Y0053274D01*
X0141701Y0054872D02*
X0171772Y0054872D01*
X0171436Y0056471D02*
X0142036Y0056471D01*
X0141921Y0058069D02*
X0171552Y0058069D01*
X0172214Y0059668D02*
X0141259Y0059668D01*
X0139649Y0061266D02*
X0173823Y0061266D01*
X0179355Y0042084D02*
X0186549Y0042084D01*
X0183966Y0040486D02*
X0180765Y0040486D01*
X0181813Y0038887D02*
X0182368Y0038887D01*
X0176822Y0035690D02*
X0176650Y0035690D01*
X0176650Y0034092D02*
X0176822Y0034092D01*
X0176822Y0032493D02*
X0176650Y0032493D01*
X0173411Y0021304D02*
X0202937Y0021304D01*
X0201084Y0019705D02*
X0022388Y0019705D01*
X0018668Y0024501D02*
X0027638Y0024501D01*
X0025893Y0026099D02*
X0018240Y0026099D01*
X0018111Y0027698D02*
X0024476Y0027698D01*
X0023814Y0029296D02*
X0018111Y0029296D01*
X0018111Y0030895D02*
X0023152Y0030895D01*
X0023097Y0032493D02*
X0018111Y0032493D01*
X0018111Y0034092D02*
X0023097Y0034092D01*
X0023397Y0035690D02*
X0018111Y0035690D01*
X0018111Y0037289D02*
X0024059Y0037289D01*
X0024888Y0038887D02*
X0018111Y0038887D01*
X0018111Y0040486D02*
X0026486Y0040486D01*
X0029069Y0042084D02*
X0018111Y0042084D01*
X0018111Y0043683D02*
X0042294Y0043683D01*
X0042243Y0043734D02*
X0043734Y0042243D01*
X0045682Y0041436D01*
X0047790Y0041436D01*
X0049738Y0042243D01*
X0051229Y0043734D01*
X0052036Y0045682D01*
X0052036Y0047790D01*
X0051229Y0049738D01*
X0049738Y0051229D01*
X0048515Y0051736D01*
X0049738Y0052243D01*
X0051229Y0053734D01*
X0052036Y0055682D01*
X0052036Y0057790D01*
X0051229Y0059738D01*
X0049738Y0061229D01*
X0048515Y0061736D01*
X0049738Y0062243D01*
X0051229Y0063734D01*
X0052036Y0065682D01*
X0052036Y0067790D01*
X0051229Y0069738D01*
X0049738Y0071229D01*
X0047790Y0072036D01*
X0045682Y0072036D01*
X0043734Y0071229D01*
X0042243Y0069738D01*
X0041436Y0067790D01*
X0041436Y0065682D01*
X0042243Y0063734D01*
X0043734Y0062243D01*
X0044958Y0061736D01*
X0043734Y0061229D01*
X0042243Y0059738D01*
X0041436Y0057790D01*
X0041436Y0055682D01*
X0042243Y0053734D01*
X0043734Y0052243D01*
X0044958Y0051736D01*
X0043734Y0051229D01*
X0042243Y0049738D01*
X0041436Y0047790D01*
X0041436Y0045682D01*
X0042243Y0043734D01*
X0041602Y0045281D02*
X0018111Y0045281D01*
X0018111Y0046880D02*
X0041436Y0046880D01*
X0041721Y0048478D02*
X0026872Y0048478D01*
X0027701Y0048821D02*
X0028982Y0050102D01*
X0029675Y0051775D01*
X0029675Y0053587D01*
X0028982Y0055260D01*
X0027701Y0056541D01*
X0026028Y0057234D01*
X0024216Y0057234D01*
X0022543Y0056541D01*
X0021262Y0055260D01*
X0020569Y0053587D01*
X0020569Y0051775D01*
X0021262Y0050102D01*
X0022543Y0048821D01*
X0024216Y0048128D01*
X0026028Y0048128D01*
X0027701Y0048821D01*
X0028956Y0050077D02*
X0042581Y0050077D01*
X0044811Y0051675D02*
X0029633Y0051675D01*
X0029675Y0053274D02*
X0042703Y0053274D01*
X0041772Y0054872D02*
X0029142Y0054872D01*
X0027771Y0056471D02*
X0041436Y0056471D01*
X0041552Y0058069D02*
X0018111Y0058069D01*
X0018111Y0056471D02*
X0022473Y0056471D01*
X0021102Y0054872D02*
X0018111Y0054872D01*
X0018111Y0053274D02*
X0020569Y0053274D01*
X0020611Y0051675D02*
X0018111Y0051675D01*
X0018111Y0050077D02*
X0021288Y0050077D01*
X0023372Y0048478D02*
X0018111Y0048478D01*
X0018111Y0059668D02*
X0042214Y0059668D01*
X0043823Y0061266D02*
X0018111Y0061266D01*
X0018111Y0062865D02*
X0043112Y0062865D01*
X0041941Y0064463D02*
X0018111Y0064463D01*
X0018111Y0066062D02*
X0041436Y0066062D01*
X0041436Y0067660D02*
X0018111Y0067660D01*
X0018111Y0069259D02*
X0042044Y0069259D01*
X0043362Y0070857D02*
X0018111Y0070857D01*
X0018111Y0072456D02*
X0205361Y0072456D01*
X0205361Y0074054D02*
X0018111Y0074054D01*
X0018111Y0075653D02*
X0205361Y0075653D01*
X0205361Y0077251D02*
X0018111Y0077251D01*
X0018111Y0078850D02*
X0205361Y0078850D01*
X0205361Y0080448D02*
X0018111Y0080448D01*
X0018111Y0082047D02*
X0205361Y0082047D01*
X0205361Y0083646D02*
X0018111Y0083646D01*
X0018111Y0085244D02*
X0205361Y0085244D01*
X0205361Y0086843D02*
X0018111Y0086843D01*
X0018111Y0088441D02*
X0205361Y0088441D01*
X0205361Y0090040D02*
X0018111Y0090040D01*
X0018111Y0091638D02*
X0205361Y0091638D01*
X0205361Y0093237D02*
X0018111Y0093237D01*
X0018111Y0094835D02*
X0205361Y0094835D01*
X0205361Y0096434D02*
X0018111Y0096434D01*
X0018111Y0098032D02*
X0205361Y0098032D01*
X0205361Y0099631D02*
X0018111Y0099631D01*
X0018111Y0101229D02*
X0205361Y0101229D01*
X0205361Y0102828D02*
X0200323Y0102828D01*
X0199738Y0102243D02*
X0197790Y0101436D01*
X0195682Y0101436D01*
X0193734Y0102243D01*
X0192243Y0103734D01*
X0191436Y0105682D01*
X0191436Y0107790D01*
X0192243Y0109738D01*
X0193734Y0111229D01*
X0194958Y0111736D01*
X0193734Y0112243D01*
X0192243Y0113734D01*
X0191436Y0115682D01*
X0191436Y0117790D01*
X0192243Y0119738D01*
X0193734Y0121229D01*
X0195682Y0122036D01*
X0197790Y0122036D01*
X0199738Y0121229D01*
X0201229Y0119738D01*
X0202036Y0117790D01*
X0202036Y0115682D01*
X0201229Y0113734D01*
X0199738Y0112243D01*
X0198515Y0111736D01*
X0199738Y0111229D01*
X0201229Y0109738D01*
X0202036Y0107790D01*
X0202036Y0105682D01*
X0201229Y0103734D01*
X0199738Y0102243D01*
X0201516Y0104426D02*
X0205361Y0104426D01*
X0205361Y0106025D02*
X0202036Y0106025D01*
X0202036Y0107623D02*
X0205361Y0107623D01*
X0205361Y0109222D02*
X0201443Y0109222D01*
X0200148Y0110820D02*
X0205361Y0110820D01*
X0205361Y0112419D02*
X0199914Y0112419D01*
X0201347Y0114017D02*
X0205361Y0114017D01*
X0205361Y0115616D02*
X0202009Y0115616D01*
X0202036Y0117214D02*
X0205361Y0117214D01*
X0205361Y0118813D02*
X0201613Y0118813D01*
X0200556Y0120411D02*
X0205361Y0120411D01*
X0205361Y0122010D02*
X0197854Y0122010D01*
X0195618Y0122010D02*
X0167854Y0122010D01*
X0167790Y0122036D02*
X0165682Y0122036D01*
X0163734Y0121229D01*
X0162243Y0119738D01*
X0161436Y0117790D01*
X0161436Y0115682D01*
X0162243Y0113734D01*
X0163734Y0112243D01*
X0164958Y0111736D01*
X0163734Y0111229D01*
X0162243Y0109738D01*
X0161436Y0107790D01*
X0161436Y0105682D01*
X0162243Y0103734D01*
X0163734Y0102243D01*
X0165682Y0101436D01*
X0167790Y0101436D01*
X0169738Y0102243D01*
X0171229Y0103734D01*
X0172036Y0105682D01*
X0172036Y0107790D01*
X0171229Y0109738D01*
X0169738Y0111229D01*
X0168515Y0111736D01*
X0169738Y0112243D01*
X0171229Y0113734D01*
X0172036Y0115682D01*
X0172036Y0117790D01*
X0171229Y0119738D01*
X0169738Y0121229D01*
X0167790Y0122036D01*
X0165618Y0122010D02*
X0127854Y0122010D01*
X0127790Y0122036D02*
X0125682Y0122036D01*
X0123734Y0121229D01*
X0122243Y0119738D01*
X0121436Y0117790D01*
X0121436Y0115682D01*
X0122243Y0113734D01*
X0123734Y0112243D01*
X0124958Y0111736D01*
X0123734Y0111229D01*
X0122243Y0109738D01*
X0121436Y0107790D01*
X0121436Y0105682D01*
X0122243Y0103734D01*
X0123734Y0102243D01*
X0125682Y0101436D01*
X0127790Y0101436D01*
X0129738Y0102243D01*
X0131229Y0103734D01*
X0132036Y0105682D01*
X0132036Y0107790D01*
X0131229Y0109738D01*
X0129738Y0111229D01*
X0128515Y0111736D01*
X0129738Y0112243D01*
X0131229Y0113734D01*
X0132036Y0115682D01*
X0132036Y0117790D01*
X0131229Y0119738D01*
X0129738Y0121229D01*
X0127790Y0122036D01*
X0125618Y0122010D02*
X0097854Y0122010D01*
X0097790Y0122036D02*
X0095682Y0122036D01*
X0093734Y0121229D01*
X0092243Y0119738D01*
X0091436Y0117790D01*
X0091436Y0115682D01*
X0092243Y0113734D01*
X0093734Y0112243D01*
X0094958Y0111736D01*
X0093734Y0111229D01*
X0092243Y0109738D01*
X0091436Y0107790D01*
X0091436Y0105682D01*
X0092243Y0103734D01*
X0093734Y0102243D01*
X0095682Y0101436D01*
X0097790Y0101436D01*
X0099738Y0102243D01*
X0101229Y0103734D01*
X0102036Y0105682D01*
X0102036Y0107790D01*
X0101229Y0109738D01*
X0099738Y0111229D01*
X0098515Y0111736D01*
X0099738Y0112243D01*
X0101229Y0113734D01*
X0102036Y0115682D01*
X0102036Y0117790D01*
X0101229Y0119738D01*
X0099738Y0121229D01*
X0097790Y0122036D01*
X0095618Y0122010D02*
X0057854Y0122010D01*
X0057790Y0122036D02*
X0055682Y0122036D01*
X0053734Y0121229D01*
X0052243Y0119738D01*
X0051436Y0117790D01*
X0051436Y0115682D01*
X0052243Y0113734D01*
X0053734Y0112243D01*
X0054958Y0111736D01*
X0053734Y0111229D01*
X0052243Y0109738D01*
X0051436Y0107790D01*
X0051436Y0105682D01*
X0052243Y0103734D01*
X0053734Y0102243D01*
X0055682Y0101436D01*
X0057790Y0101436D01*
X0059738Y0102243D01*
X0061229Y0103734D01*
X0062036Y0105682D01*
X0062036Y0107790D01*
X0061229Y0109738D01*
X0059738Y0111229D01*
X0058515Y0111736D01*
X0059738Y0112243D01*
X0061229Y0113734D01*
X0062036Y0115682D01*
X0062036Y0117790D01*
X0061229Y0119738D01*
X0059738Y0121229D01*
X0057790Y0122036D01*
X0055618Y0122010D02*
X0027854Y0122010D01*
X0027790Y0122036D02*
X0025682Y0122036D01*
X0023734Y0121229D01*
X0022243Y0119738D01*
X0021436Y0117790D01*
X0021436Y0115682D01*
X0022243Y0113734D01*
X0023734Y0112243D01*
X0024958Y0111736D01*
X0023734Y0111229D01*
X0022243Y0109738D01*
X0021436Y0107790D01*
X0021436Y0105682D01*
X0022243Y0103734D01*
X0023734Y0102243D01*
X0025682Y0101436D01*
X0027790Y0101436D01*
X0029738Y0102243D01*
X0031229Y0103734D01*
X0032036Y0105682D01*
X0032036Y0107790D01*
X0031229Y0109738D01*
X0029738Y0111229D01*
X0028515Y0111736D01*
X0029738Y0112243D01*
X0031229Y0113734D01*
X0032036Y0115682D01*
X0032036Y0117790D01*
X0031229Y0119738D01*
X0029738Y0121229D01*
X0027790Y0122036D01*
X0025618Y0122010D02*
X0018111Y0122010D01*
X0018111Y0123608D02*
X0205361Y0123608D01*
X0205361Y0125207D02*
X0018111Y0125207D01*
X0018111Y0126805D02*
X0205361Y0126805D01*
X0205361Y0128404D02*
X0018111Y0128404D01*
X0018111Y0130002D02*
X0205361Y0130002D01*
X0205361Y0131601D02*
X0018111Y0131601D01*
X0018111Y0133199D02*
X0205361Y0133199D01*
X0205361Y0134798D02*
X0018111Y0134798D01*
X0018111Y0136396D02*
X0205361Y0136396D01*
X0205361Y0137995D02*
X0018111Y0137995D01*
X0018111Y0139593D02*
X0205361Y0139593D01*
X0205361Y0141192D02*
X0018111Y0141192D01*
X0018111Y0142790D02*
X0205361Y0142790D01*
X0205361Y0144389D02*
X0018111Y0144389D01*
X0018111Y0145987D02*
X0205361Y0145987D01*
X0205361Y0147586D02*
X0018111Y0147586D01*
X0018111Y0149184D02*
X0205361Y0149184D01*
X0205361Y0150783D02*
X0018111Y0150783D01*
X0018111Y0152382D02*
X0205361Y0152382D01*
X0205361Y0153980D02*
X0018111Y0153980D01*
X0018111Y0155579D02*
X0205361Y0155579D01*
X0205361Y0157177D02*
X0018111Y0157177D01*
X0018111Y0158776D02*
X0205361Y0158776D01*
X0205361Y0160374D02*
X0154286Y0160374D01*
X0154187Y0160275D02*
X0155717Y0161805D01*
X0156545Y0163804D01*
X0156545Y0165968D01*
X0155717Y0167967D01*
X0154187Y0169496D01*
X0152188Y0170324D01*
X0150024Y0170324D01*
X0148026Y0169496D01*
X0146496Y0167967D01*
X0145668Y0165968D01*
X0145668Y0163804D01*
X0146496Y0161805D01*
X0148026Y0160275D01*
X0150024Y0159447D01*
X0152188Y0159447D01*
X0154187Y0160275D01*
X0155786Y0161973D02*
X0205361Y0161973D01*
X0205361Y0163571D02*
X0156448Y0163571D01*
X0156545Y0165170D02*
X0205361Y0165170D01*
X0205361Y0166768D02*
X0200534Y0166768D01*
X0200929Y0166932D02*
X0202210Y0168212D01*
X0202903Y0169886D01*
X0202903Y0171697D01*
X0202210Y0173370D01*
X0200929Y0174651D01*
X0199256Y0175344D01*
X0197445Y0175344D01*
X0195771Y0174651D01*
X0194491Y0173370D01*
X0193798Y0171697D01*
X0193798Y0169886D01*
X0194491Y0168212D01*
X0195771Y0166932D01*
X0197445Y0166239D01*
X0199256Y0166239D01*
X0200929Y0166932D01*
X0202274Y0168367D02*
X0205361Y0168367D01*
X0205361Y0169965D02*
X0202903Y0169965D01*
X0202903Y0171564D02*
X0205361Y0171564D01*
X0205361Y0173162D02*
X0202296Y0173162D01*
X0200664Y0174761D02*
X0205361Y0174761D01*
X0205361Y0176359D02*
X0018111Y0176359D01*
X0018111Y0174761D02*
X0022808Y0174761D01*
X0022543Y0174651D02*
X0021262Y0173370D01*
X0020569Y0171697D01*
X0020569Y0169886D01*
X0021262Y0168212D01*
X0022543Y0166932D01*
X0024216Y0166239D01*
X0026028Y0166239D01*
X0027701Y0166932D01*
X0028982Y0168212D01*
X0029675Y0169886D01*
X0029675Y0171697D01*
X0028982Y0173370D01*
X0027701Y0174651D01*
X0026028Y0175344D01*
X0024216Y0175344D01*
X0022543Y0174651D01*
X0021176Y0173162D02*
X0018111Y0173162D01*
X0018111Y0171564D02*
X0020569Y0171564D01*
X0020569Y0169965D02*
X0018111Y0169965D01*
X0018111Y0168367D02*
X0021199Y0168367D01*
X0022938Y0166768D02*
X0018111Y0166768D01*
X0018111Y0165170D02*
X0071887Y0165170D01*
X0071887Y0165365D02*
X0071887Y0164406D01*
X0072846Y0164406D01*
X0072846Y0165365D01*
X0077999Y0165365D01*
X0077866Y0166206D01*
X0077592Y0167050D01*
X0077189Y0167841D01*
X0076667Y0168559D01*
X0076039Y0169187D01*
X0075321Y0169708D01*
X0074531Y0170111D01*
X0073687Y0170386D01*
X0072846Y0170519D01*
X0072846Y0165365D01*
X0071887Y0165365D01*
X0066733Y0165365D01*
X0066866Y0166206D01*
X0067141Y0167050D01*
X0067544Y0167841D01*
X0068065Y0168559D01*
X0068693Y0169187D01*
X0069411Y0169708D01*
X0070202Y0170111D01*
X0071046Y0170386D01*
X0071887Y0170519D01*
X0071887Y0165365D01*
X0071887Y0164406D02*
X0066733Y0164406D01*
X0066866Y0163565D01*
X0067141Y0162721D01*
X0067544Y0161931D01*
X0068065Y0161213D01*
X0068693Y0160585D01*
X0069411Y0160063D01*
X0070202Y0159660D01*
X0071046Y0159386D01*
X0071887Y0159253D01*
X0071887Y0164406D01*
X0071887Y0163571D02*
X0072846Y0163571D01*
X0072846Y0164406D02*
X0072846Y0159253D01*
X0073687Y0159386D01*
X0074531Y0159660D01*
X0075321Y0160063D01*
X0076039Y0160585D01*
X0076667Y0161213D01*
X0077189Y0161931D01*
X0077592Y0162721D01*
X0077866Y0163565D01*
X0077999Y0164406D01*
X0072846Y0164406D01*
X0072846Y0165170D02*
X0145668Y0165170D01*
X0145764Y0163571D02*
X0077867Y0163571D01*
X0077210Y0161973D02*
X0146426Y0161973D01*
X0147927Y0160374D02*
X0075749Y0160374D01*
X0072846Y0160374D02*
X0071887Y0160374D01*
X0071887Y0161973D02*
X0072846Y0161973D01*
X0068983Y0160374D02*
X0018111Y0160374D01*
X0018111Y0161973D02*
X0067522Y0161973D01*
X0066866Y0163571D02*
X0018111Y0163571D01*
X0027306Y0166768D02*
X0067049Y0166768D01*
X0067925Y0168367D02*
X0029046Y0168367D01*
X0029675Y0169965D02*
X0069915Y0169965D01*
X0071887Y0169965D02*
X0072846Y0169965D01*
X0072846Y0168367D02*
X0071887Y0168367D01*
X0071887Y0166768D02*
X0072846Y0166768D01*
X0074817Y0169965D02*
X0149157Y0169965D01*
X0146896Y0168367D02*
X0076807Y0168367D01*
X0077683Y0166768D02*
X0145999Y0166768D01*
X0153055Y0169965D02*
X0193798Y0169965D01*
X0193798Y0171564D02*
X0029675Y0171564D01*
X0029068Y0173162D02*
X0194405Y0173162D01*
X0196036Y0174761D02*
X0027436Y0174761D01*
X0031027Y0180577D02*
X0034965Y0180577D01*
X0038604Y0182084D01*
X0041388Y0184869D01*
X0042895Y0188507D01*
X0042895Y0192445D01*
X0041388Y0196084D01*
X0038604Y0198869D01*
X0034965Y0200376D01*
X0031027Y0200376D01*
X0027389Y0198869D01*
X0024604Y0196084D01*
X0023097Y0192445D01*
X0023097Y0188507D01*
X0024604Y0184869D01*
X0027389Y0182084D01*
X0031027Y0180577D01*
X0029633Y0181155D02*
X0018111Y0181155D01*
X0018111Y0182753D02*
X0026720Y0182753D01*
X0025121Y0184352D02*
X0018111Y0184352D01*
X0018111Y0185950D02*
X0024156Y0185950D01*
X0023494Y0187549D02*
X0018111Y0187549D01*
X0018111Y0189147D02*
X0023097Y0189147D01*
X0023097Y0190746D02*
X0018111Y0190746D01*
X0018111Y0192344D02*
X0023097Y0192344D01*
X0023717Y0193943D02*
X0018111Y0193943D01*
X0018111Y0195541D02*
X0024379Y0195541D01*
X0025660Y0197140D02*
X0018188Y0197140D01*
X0018606Y0198738D02*
X0027258Y0198738D01*
X0030933Y0200337D02*
X0019274Y0200337D01*
X0018826Y0199562D02*
X0018826Y0199562D01*
X0020302Y0201935D02*
X0049827Y0201935D01*
X0050102Y0202210D02*
X0048821Y0200929D01*
X0048128Y0199256D01*
X0048128Y0197445D01*
X0048821Y0195771D01*
X0050102Y0194491D01*
X0051775Y0193798D01*
X0053587Y0193798D01*
X0055260Y0194491D01*
X0056541Y0195771D01*
X0057234Y0197445D01*
X0057234Y0199256D01*
X0056541Y0200929D01*
X0055260Y0202210D01*
X0053587Y0202903D01*
X0051775Y0202903D01*
X0050102Y0202210D01*
X0048576Y0200337D02*
X0035059Y0200337D01*
X0038734Y0198738D02*
X0048128Y0198738D01*
X0048255Y0197140D02*
X0040332Y0197140D01*
X0041613Y0195541D02*
X0049052Y0195541D01*
X0051425Y0193943D02*
X0042275Y0193943D01*
X0042895Y0192344D02*
X0180577Y0192344D01*
X0180577Y0192445D02*
X0180577Y0188507D01*
X0182084Y0184869D01*
X0184869Y0182084D01*
X0188507Y0180577D01*
X0192445Y0180577D01*
X0196084Y0182084D01*
X0198869Y0184869D01*
X0200376Y0188507D01*
X0200376Y0192445D01*
X0198869Y0196084D01*
X0196084Y0198869D01*
X0192445Y0200376D01*
X0188507Y0200376D01*
X0184869Y0198869D01*
X0182084Y0196084D01*
X0180577Y0192445D01*
X0181197Y0193943D02*
X0172047Y0193943D01*
X0171697Y0193798D02*
X0173370Y0194491D01*
X0174651Y0195771D01*
X0175344Y0197445D01*
X0175344Y0199256D01*
X0174651Y0200929D01*
X0173370Y0202210D01*
X0171697Y0202903D01*
X0169886Y0202903D01*
X0168212Y0202210D01*
X0166932Y0200929D01*
X0166239Y0199256D01*
X0166239Y0197445D01*
X0166932Y0195771D01*
X0168212Y0194491D01*
X0169886Y0193798D01*
X0171697Y0193798D01*
X0169535Y0193943D02*
X0053937Y0193943D01*
X0056311Y0195541D02*
X0167162Y0195541D01*
X0166365Y0197140D02*
X0057108Y0197140D01*
X0057234Y0198738D02*
X0166239Y0198738D01*
X0166686Y0200337D02*
X0056786Y0200337D01*
X0055535Y0201935D02*
X0167938Y0201935D01*
X0173645Y0201935D02*
X0203170Y0201935D01*
X0204199Y0200337D02*
X0192539Y0200337D01*
X0196214Y0198738D02*
X0204867Y0198738D01*
X0205284Y0197140D02*
X0197813Y0197140D01*
X0199093Y0195541D02*
X0205361Y0195541D01*
X0205361Y0193943D02*
X0199755Y0193943D01*
X0200376Y0192344D02*
X0205361Y0192344D01*
X0205361Y0190746D02*
X0200376Y0190746D01*
X0200376Y0189147D02*
X0205361Y0189147D01*
X0205361Y0187549D02*
X0199979Y0187549D01*
X0199316Y0185950D02*
X0205361Y0185950D01*
X0205361Y0184352D02*
X0198351Y0184352D01*
X0196753Y0182753D02*
X0205361Y0182753D01*
X0205361Y0181155D02*
X0193840Y0181155D01*
X0187113Y0181155D02*
X0036359Y0181155D01*
X0039273Y0182753D02*
X0184200Y0182753D01*
X0182601Y0184352D02*
X0040871Y0184352D01*
X0041836Y0185950D02*
X0181636Y0185950D01*
X0180974Y0187549D02*
X0042498Y0187549D01*
X0042895Y0189147D02*
X0180577Y0189147D01*
X0180577Y0190746D02*
X0042895Y0190746D01*
X0025725Y0205132D02*
X0197747Y0205132D01*
X0201488Y0203534D02*
X0021984Y0203534D01*
X0018111Y0179556D02*
X0205361Y0179556D01*
X0205361Y0177958D02*
X0018111Y0177958D01*
X0018111Y0120411D02*
X0022916Y0120411D01*
X0021860Y0118813D02*
X0018111Y0118813D01*
X0018111Y0117214D02*
X0021436Y0117214D01*
X0021464Y0115616D02*
X0018111Y0115616D01*
X0018111Y0114017D02*
X0022126Y0114017D01*
X0023558Y0112419D02*
X0018111Y0112419D01*
X0018111Y0110820D02*
X0023325Y0110820D01*
X0022029Y0109222D02*
X0018111Y0109222D01*
X0018111Y0107623D02*
X0021436Y0107623D01*
X0021436Y0106025D02*
X0018111Y0106025D01*
X0018111Y0104426D02*
X0021956Y0104426D01*
X0023149Y0102828D02*
X0018111Y0102828D01*
X0030323Y0102828D02*
X0053149Y0102828D01*
X0051956Y0104426D02*
X0031516Y0104426D01*
X0032036Y0106025D02*
X0051436Y0106025D01*
X0051436Y0107623D02*
X0032036Y0107623D01*
X0031443Y0109222D02*
X0052029Y0109222D01*
X0053325Y0110820D02*
X0030148Y0110820D01*
X0029914Y0112419D02*
X0053558Y0112419D01*
X0052126Y0114017D02*
X0031347Y0114017D01*
X0032009Y0115616D02*
X0051464Y0115616D01*
X0051436Y0117214D02*
X0032036Y0117214D01*
X0031613Y0118813D02*
X0051860Y0118813D01*
X0052916Y0120411D02*
X0030556Y0120411D01*
X0059914Y0112419D02*
X0093558Y0112419D01*
X0093325Y0110820D02*
X0060148Y0110820D01*
X0061443Y0109222D02*
X0092029Y0109222D01*
X0091436Y0107623D02*
X0062036Y0107623D01*
X0062036Y0106025D02*
X0091436Y0106025D01*
X0091956Y0104426D02*
X0061516Y0104426D01*
X0060323Y0102828D02*
X0093149Y0102828D01*
X0100323Y0102828D02*
X0123149Y0102828D01*
X0121956Y0104426D02*
X0101516Y0104426D01*
X0102036Y0106025D02*
X0121436Y0106025D01*
X0121436Y0107623D02*
X0102036Y0107623D01*
X0101443Y0109222D02*
X0122029Y0109222D01*
X0123325Y0110820D02*
X0100148Y0110820D01*
X0099914Y0112419D02*
X0123558Y0112419D01*
X0122126Y0114017D02*
X0101347Y0114017D01*
X0102009Y0115616D02*
X0121464Y0115616D01*
X0121436Y0117214D02*
X0102036Y0117214D01*
X0101613Y0118813D02*
X0121860Y0118813D01*
X0122916Y0120411D02*
X0100556Y0120411D01*
X0092916Y0120411D02*
X0060556Y0120411D01*
X0061613Y0118813D02*
X0091860Y0118813D01*
X0091436Y0117214D02*
X0062036Y0117214D01*
X0062009Y0115616D02*
X0091464Y0115616D01*
X0092126Y0114017D02*
X0061347Y0114017D01*
X0083734Y0071229D02*
X0085682Y0072036D01*
X0087790Y0072036D01*
X0089738Y0071229D01*
X0091229Y0069738D01*
X0091736Y0068515D01*
X0091736Y0068807D01*
X0094665Y0071736D01*
X0098807Y0071736D01*
X0101736Y0068807D01*
X0101736Y0064665D01*
X0098807Y0061736D01*
X0094665Y0061736D01*
X0091736Y0058807D01*
X0091736Y0058515D01*
X0091229Y0059738D01*
X0089738Y0061229D01*
X0088515Y0061736D01*
X0089738Y0062243D01*
X0091229Y0063734D01*
X0091736Y0064958D01*
X0091736Y0064665D01*
X0094665Y0061736D01*
X0098807Y0061736D01*
X0101736Y0058807D01*
X0101736Y0054665D01*
X0098807Y0051736D01*
X0094665Y0051736D01*
X0091736Y0048807D01*
X0091736Y0048515D01*
X0091229Y0049738D01*
X0089738Y0051229D01*
X0088515Y0051736D01*
X0089738Y0052243D01*
X0091229Y0053734D01*
X0091736Y0054958D01*
X0091736Y0054665D01*
X0094665Y0051736D01*
X0098807Y0051736D01*
X0101736Y0048807D01*
X0101736Y0044665D01*
X0098949Y0041878D01*
X0101936Y0038890D01*
X0101936Y0036736D01*
X0096736Y0036736D01*
X0091536Y0036736D01*
X0091536Y0034582D01*
X0094582Y0031536D01*
X0096736Y0031536D01*
X0096736Y0036736D01*
X0096736Y0036736D01*
X0096736Y0036736D01*
X0091536Y0036736D01*
X0091536Y0038890D01*
X0094524Y0041878D01*
X0091736Y0044665D01*
X0091736Y0044958D01*
X0091229Y0043734D01*
X0089738Y0042243D01*
X0087790Y0041436D01*
X0085682Y0041436D01*
X0083734Y0042243D01*
X0082243Y0043734D01*
X0081436Y0045682D01*
X0081436Y0047790D01*
X0082243Y0049738D01*
X0083734Y0051229D01*
X0084958Y0051736D01*
X0083734Y0052243D01*
X0082243Y0053734D01*
X0081436Y0055682D01*
X0081436Y0057790D01*
X0082243Y0059738D01*
X0083734Y0061229D01*
X0084958Y0061736D01*
X0083734Y0062243D01*
X0082243Y0063734D01*
X0081436Y0065682D01*
X0081436Y0067790D01*
X0082243Y0069738D01*
X0083734Y0071229D01*
X0083362Y0070857D02*
X0050110Y0070857D01*
X0051428Y0069259D02*
X0082044Y0069259D01*
X0081436Y0067660D02*
X0052036Y0067660D01*
X0052036Y0066062D02*
X0081436Y0066062D01*
X0081941Y0064463D02*
X0051531Y0064463D01*
X0050360Y0062865D02*
X0083112Y0062865D01*
X0083823Y0061266D02*
X0049649Y0061266D01*
X0051259Y0059668D02*
X0082214Y0059668D01*
X0081552Y0058069D02*
X0051921Y0058069D01*
X0052036Y0056471D02*
X0081436Y0056471D01*
X0081772Y0054872D02*
X0051701Y0054872D01*
X0050769Y0053274D02*
X0082703Y0053274D01*
X0084811Y0051675D02*
X0048662Y0051675D01*
X0050891Y0050077D02*
X0082581Y0050077D01*
X0081721Y0048478D02*
X0051751Y0048478D01*
X0052036Y0046880D02*
X0081436Y0046880D01*
X0081602Y0045281D02*
X0051870Y0045281D01*
X0051178Y0043683D02*
X0082294Y0043683D01*
X0084118Y0042084D02*
X0049355Y0042084D01*
X0044118Y0042084D02*
X0036923Y0042084D01*
X0039506Y0040486D02*
X0093132Y0040486D01*
X0094317Y0042084D02*
X0089355Y0042084D01*
X0091178Y0043683D02*
X0092719Y0043683D01*
X0091536Y0038887D02*
X0041105Y0038887D01*
X0041933Y0037289D02*
X0091536Y0037289D01*
X0091536Y0035690D02*
X0042595Y0035690D01*
X0042895Y0034092D02*
X0092027Y0034092D01*
X0093625Y0032493D02*
X0042895Y0032493D01*
X0088662Y0051675D02*
X0094604Y0051675D01*
X0093128Y0053274D02*
X0090769Y0053274D01*
X0091701Y0054872D02*
X0091736Y0054872D01*
X0091259Y0059668D02*
X0092597Y0059668D01*
X0094195Y0061266D02*
X0089649Y0061266D01*
X0090360Y0062865D02*
X0093537Y0062865D01*
X0091938Y0064463D02*
X0091531Y0064463D01*
X0091428Y0069259D02*
X0092188Y0069259D01*
X0093786Y0070857D02*
X0090110Y0070857D01*
X0099686Y0070857D02*
X0123786Y0070857D01*
X0122188Y0069259D02*
X0101285Y0069259D01*
X0101736Y0067660D02*
X0121736Y0067660D01*
X0121736Y0066062D02*
X0101736Y0066062D01*
X0101534Y0064463D02*
X0121938Y0064463D01*
X0123537Y0062865D02*
X0099936Y0062865D01*
X0099277Y0061266D02*
X0124195Y0061266D01*
X0122597Y0059668D02*
X0100876Y0059668D01*
X0101736Y0058069D02*
X0121736Y0058069D01*
X0121736Y0056471D02*
X0101736Y0056471D01*
X0101736Y0054872D02*
X0121736Y0054872D01*
X0123128Y0053274D02*
X0100345Y0053274D01*
X0098868Y0051675D02*
X0124604Y0051675D01*
X0123006Y0050077D02*
X0100467Y0050077D01*
X0101736Y0048478D02*
X0121736Y0048478D01*
X0121736Y0046880D02*
X0101736Y0046880D01*
X0101736Y0045281D02*
X0121736Y0045281D01*
X0122719Y0043683D02*
X0100754Y0043683D01*
X0099155Y0042084D02*
X0124317Y0042084D01*
X0123415Y0040486D02*
X0100341Y0040486D01*
X0101936Y0038887D02*
X0121816Y0038887D01*
X0121736Y0037289D02*
X0101936Y0037289D01*
X0101936Y0036736D02*
X0096736Y0036736D01*
X0096736Y0031536D01*
X0098890Y0031536D01*
X0101936Y0034582D01*
X0101936Y0036736D01*
X0101936Y0035690D02*
X0121736Y0035690D01*
X0122310Y0034092D02*
X0101446Y0034092D01*
X0099847Y0032493D02*
X0123908Y0032493D01*
X0096736Y0032493D02*
X0096736Y0032493D01*
X0096736Y0034092D02*
X0096736Y0034092D01*
X0096736Y0035690D02*
X0096736Y0035690D01*
X0096736Y0036736D02*
X0096736Y0036736D01*
X0093006Y0050077D02*
X0090891Y0050077D01*
X0131534Y0064463D02*
X0205361Y0064463D01*
X0205361Y0066062D02*
X0131736Y0066062D01*
X0131736Y0067660D02*
X0205361Y0067660D01*
X0205361Y0069259D02*
X0131285Y0069259D01*
X0129686Y0070857D02*
X0205361Y0070857D01*
X0193149Y0102828D02*
X0170323Y0102828D01*
X0171516Y0104426D02*
X0191956Y0104426D01*
X0191436Y0106025D02*
X0172036Y0106025D01*
X0172036Y0107623D02*
X0191436Y0107623D01*
X0192029Y0109222D02*
X0171443Y0109222D01*
X0170148Y0110820D02*
X0193325Y0110820D01*
X0193558Y0112419D02*
X0169914Y0112419D01*
X0171347Y0114017D02*
X0192126Y0114017D01*
X0191464Y0115616D02*
X0172009Y0115616D01*
X0172036Y0117214D02*
X0191436Y0117214D01*
X0191860Y0118813D02*
X0171613Y0118813D01*
X0170556Y0120411D02*
X0192916Y0120411D01*
X0163558Y0112419D02*
X0129914Y0112419D01*
X0130148Y0110820D02*
X0163325Y0110820D01*
X0162029Y0109222D02*
X0131443Y0109222D01*
X0132036Y0107623D02*
X0161436Y0107623D01*
X0161436Y0106025D02*
X0132036Y0106025D01*
X0131516Y0104426D02*
X0161956Y0104426D01*
X0163149Y0102828D02*
X0130323Y0102828D01*
X0131347Y0114017D02*
X0162126Y0114017D01*
X0161464Y0115616D02*
X0132009Y0115616D01*
X0132036Y0117214D02*
X0161436Y0117214D01*
X0161860Y0118813D02*
X0131613Y0118813D01*
X0130556Y0120411D02*
X0162916Y0120411D01*
X0156213Y0166768D02*
X0196166Y0166768D01*
X0194427Y0168367D02*
X0155317Y0168367D01*
X0174421Y0195541D02*
X0181860Y0195541D01*
X0183140Y0197140D02*
X0175218Y0197140D01*
X0175344Y0198738D02*
X0184739Y0198738D01*
X0188414Y0200337D02*
X0174896Y0200337D01*
D14*
X0170791Y0198350D03*
X0198350Y0170791D03*
X0198350Y0052681D03*
X0170791Y0025122D03*
X0052681Y0025122D03*
X0025122Y0052681D03*
X0025122Y0170791D03*
X0052681Y0198350D03*
D15*
X0032996Y0190476D03*
X0032996Y0032996D03*
X0190476Y0032996D03*
X0190476Y0190476D03*
M02*
