G75*
%MOIN*%
%OFA0B0*%
%FSLAX25Y25*%
%IPPOS*%
%LPD*%
%AMOC8*
5,1,8,0,0,1.08239X$1,22.5*
%
%ADD10C,0.07677*%
%ADD11C,0.07400*%
%ADD12OC8,0.06800*%
%ADD13C,0.01600*%
%ADD14C,0.05906*%
%ADD15C,0.16598*%
D10*
X0072366Y0164886D03*
X0151106Y0164886D03*
D11*
X0166736Y0116736D03*
X0166736Y0106736D03*
X0196736Y0106736D03*
X0196736Y0116736D03*
X0168040Y0064731D03*
X0168040Y0046931D03*
X0142440Y0046931D03*
X0142440Y0064731D03*
X0126736Y0106736D03*
X0126736Y0116736D03*
X0096736Y0116736D03*
X0096736Y0106736D03*
X0056736Y0106736D03*
X0056736Y0116736D03*
X0026736Y0116736D03*
X0026736Y0106736D03*
X0046736Y0066736D03*
X0046736Y0056736D03*
X0046736Y0046736D03*
X0086736Y0046736D03*
X0086736Y0056736D03*
X0086736Y0066736D03*
D12*
X0096736Y0066736D03*
X0096736Y0056736D03*
X0096736Y0046736D03*
X0096736Y0036736D03*
X0126736Y0036736D03*
X0126736Y0046736D03*
X0126736Y0056736D03*
X0126736Y0066736D03*
D13*
X0202937Y0021304D02*
X0020536Y0021304D01*
X0020052Y0021787D02*
X0018826Y0023911D01*
X0018191Y0026280D01*
X0018111Y0027506D01*
X0018111Y0093046D01*
X0019119Y0092038D01*
X0021839Y0090911D01*
X0023311Y0090911D01*
X0023818Y0090861D01*
X0024755Y0090473D01*
X0025473Y0089755D01*
X0025861Y0088818D01*
X0025911Y0088311D01*
X0025911Y0062420D01*
X0027330Y0057123D01*
X0030072Y0052374D01*
X0033949Y0048497D01*
X0033949Y0048497D01*
X0038698Y0045755D01*
X0041744Y0044939D01*
X0042243Y0043734D01*
X0043734Y0042243D01*
X0045682Y0041436D01*
X0047790Y0041436D01*
X0049738Y0042243D01*
X0051229Y0043734D01*
X0052036Y0045682D01*
X0052036Y0047790D01*
X0051229Y0049738D01*
X0049738Y0051229D01*
X0048515Y0051736D01*
X0049738Y0052243D01*
X0051229Y0053734D01*
X0052036Y0055682D01*
X0052036Y0057790D01*
X0051229Y0059738D01*
X0049738Y0061229D01*
X0048515Y0061736D01*
X0049738Y0062243D01*
X0051229Y0063734D01*
X0052036Y0065682D01*
X0052036Y0067790D01*
X0051229Y0069738D01*
X0049738Y0071229D01*
X0049510Y0071324D01*
X0050417Y0076468D01*
X0052659Y0082627D01*
X0055936Y0088303D01*
X0060149Y0093323D01*
X0065170Y0097536D01*
X0070846Y0100813D01*
X0077005Y0103055D01*
X0083459Y0104193D01*
X0086736Y0104336D01*
X0091994Y0104336D01*
X0092243Y0103734D01*
X0093734Y0102243D01*
X0095682Y0101436D01*
X0097790Y0101436D01*
X0099738Y0102243D01*
X0101229Y0103734D01*
X0101479Y0104336D01*
X0121994Y0104336D01*
X0122243Y0103734D01*
X0123734Y0102243D01*
X0125682Y0101436D01*
X0127790Y0101436D01*
X0129738Y0102243D01*
X0131229Y0103734D01*
X0131479Y0104336D01*
X0161994Y0104336D01*
X0162243Y0103734D01*
X0163734Y0102243D01*
X0165682Y0101436D01*
X0167790Y0101436D01*
X0169738Y0102243D01*
X0171229Y0103734D01*
X0171479Y0104336D01*
X0191994Y0104336D01*
X0192243Y0103734D01*
X0193734Y0102243D01*
X0195682Y0101436D01*
X0197790Y0101436D01*
X0199738Y0102243D01*
X0201229Y0103734D01*
X0202036Y0105682D01*
X0202036Y0107790D01*
X0201229Y0109738D01*
X0199738Y0111229D01*
X0198515Y0111736D01*
X0199738Y0112243D01*
X0201229Y0113734D01*
X0202036Y0115682D01*
X0202036Y0117790D01*
X0201229Y0119738D01*
X0199738Y0121229D01*
X0197790Y0122036D01*
X0195682Y0122036D01*
X0193734Y0121229D01*
X0192243Y0119738D01*
X0191994Y0119136D01*
X0171479Y0119136D01*
X0171229Y0119738D01*
X0169738Y0121229D01*
X0167790Y0122036D01*
X0167404Y0122036D01*
X0166587Y0123161D01*
X0166587Y0123161D01*
X0166587Y0123161D01*
X0164287Y0124832D01*
X0164287Y0124832D01*
X0161583Y0125711D01*
X0063788Y0125711D01*
X0061890Y0125711D01*
X0059186Y0124832D01*
X0056886Y0123161D01*
X0056068Y0122036D01*
X0055682Y0122036D01*
X0053734Y0121229D01*
X0052243Y0119738D01*
X0051994Y0119136D01*
X0031479Y0119136D01*
X0031229Y0119738D01*
X0029738Y0121229D01*
X0027790Y0122036D01*
X0025682Y0122036D01*
X0023734Y0121229D01*
X0022243Y0119738D01*
X0021466Y0117863D01*
X0018986Y0116061D01*
X0018111Y0114856D01*
X0018111Y0195966D01*
X0018191Y0197193D01*
X0018826Y0199562D01*
X0020052Y0201686D01*
X0021787Y0203420D01*
X0023911Y0204646D01*
X0026280Y0205281D01*
X0027506Y0205361D01*
X0195966Y0205361D01*
X0197193Y0205281D01*
X0199562Y0204646D01*
X0201686Y0203420D01*
X0203420Y0201686D01*
X0204646Y0199562D01*
X0205281Y0197193D01*
X0205361Y0195966D01*
X0205361Y0027506D01*
X0205281Y0026280D01*
X0204646Y0023911D01*
X0203420Y0021787D01*
X0201686Y0020052D01*
X0199562Y0018826D01*
X0197193Y0018191D01*
X0195966Y0018111D01*
X0027506Y0018111D01*
X0026280Y0018191D01*
X0023911Y0018826D01*
X0021787Y0020052D01*
X0020052Y0021787D01*
X0019409Y0022902D02*
X0204064Y0022902D01*
X0204804Y0024501D02*
X0038354Y0024501D01*
X0038604Y0024604D02*
X0041388Y0027389D01*
X0042895Y0031027D01*
X0042895Y0034965D01*
X0041388Y0038604D01*
X0038604Y0041388D01*
X0034965Y0042895D01*
X0031027Y0042895D01*
X0027389Y0041388D01*
X0024604Y0038604D01*
X0023097Y0034965D01*
X0023097Y0031027D01*
X0024604Y0027389D01*
X0027389Y0024604D01*
X0031027Y0023097D01*
X0034965Y0023097D01*
X0038604Y0024604D01*
X0040099Y0026099D02*
X0205233Y0026099D01*
X0205361Y0027698D02*
X0041516Y0027698D01*
X0042178Y0029296D02*
X0205361Y0029296D01*
X0205361Y0030895D02*
X0042840Y0030895D01*
X0042895Y0032493D02*
X0093908Y0032493D01*
X0094665Y0031736D02*
X0098807Y0031736D01*
X0101736Y0034665D01*
X0101736Y0038807D01*
X0098807Y0041736D01*
X0094665Y0041736D01*
X0091736Y0038807D01*
X0091736Y0034665D01*
X0094665Y0031736D01*
X0092310Y0034092D02*
X0042895Y0034092D01*
X0042595Y0035690D02*
X0091736Y0035690D01*
X0091736Y0037289D02*
X0041933Y0037289D01*
X0041105Y0038887D02*
X0091816Y0038887D01*
X0093415Y0040486D02*
X0039506Y0040486D01*
X0036923Y0042084D02*
X0044118Y0042084D01*
X0042294Y0043683D02*
X0018111Y0043683D01*
X0018111Y0045281D02*
X0040468Y0045281D01*
X0038698Y0045755D02*
X0038698Y0045755D01*
X0036751Y0046880D02*
X0018111Y0046880D01*
X0018111Y0048478D02*
X0033982Y0048478D01*
X0032370Y0050077D02*
X0018111Y0050077D01*
X0018111Y0051675D02*
X0030771Y0051675D01*
X0030072Y0052374D02*
X0030072Y0052374D01*
X0029553Y0053274D02*
X0018111Y0053274D01*
X0018111Y0054872D02*
X0028630Y0054872D01*
X0027707Y0056471D02*
X0018111Y0056471D01*
X0018111Y0058069D02*
X0027077Y0058069D01*
X0027330Y0057123D02*
X0027330Y0057123D01*
X0026648Y0059668D02*
X0018111Y0059668D01*
X0018111Y0061266D02*
X0026220Y0061266D01*
X0025911Y0062865D02*
X0018111Y0062865D01*
X0018111Y0064463D02*
X0025911Y0064463D01*
X0025911Y0066062D02*
X0018111Y0066062D01*
X0018111Y0067660D02*
X0025911Y0067660D01*
X0025911Y0069259D02*
X0018111Y0069259D01*
X0018111Y0070857D02*
X0025911Y0070857D01*
X0025911Y0072456D02*
X0018111Y0072456D01*
X0018111Y0074054D02*
X0025911Y0074054D01*
X0025911Y0075653D02*
X0018111Y0075653D01*
X0018111Y0077251D02*
X0025911Y0077251D01*
X0025911Y0078850D02*
X0018111Y0078850D01*
X0018111Y0080448D02*
X0025911Y0080448D01*
X0025911Y0082047D02*
X0018111Y0082047D01*
X0018111Y0083646D02*
X0025911Y0083646D01*
X0025911Y0085244D02*
X0018111Y0085244D01*
X0018111Y0086843D02*
X0025911Y0086843D01*
X0025898Y0088441D02*
X0018111Y0088441D01*
X0018111Y0090040D02*
X0025189Y0090040D01*
X0028311Y0088311D02*
X0028309Y0088451D01*
X0028303Y0088591D01*
X0028293Y0088731D01*
X0028280Y0088871D01*
X0028262Y0089010D01*
X0028240Y0089149D01*
X0028215Y0089286D01*
X0028186Y0089424D01*
X0028153Y0089560D01*
X0028116Y0089695D01*
X0028075Y0089829D01*
X0028030Y0089962D01*
X0027982Y0090094D01*
X0027930Y0090224D01*
X0027875Y0090353D01*
X0027816Y0090480D01*
X0027753Y0090606D01*
X0027687Y0090730D01*
X0027618Y0090851D01*
X0027545Y0090971D01*
X0027468Y0091089D01*
X0027389Y0091204D01*
X0027306Y0091318D01*
X0027220Y0091428D01*
X0027131Y0091537D01*
X0027039Y0091643D01*
X0026944Y0091746D01*
X0026847Y0091847D01*
X0026746Y0091944D01*
X0026643Y0092039D01*
X0026537Y0092131D01*
X0026428Y0092220D01*
X0026318Y0092306D01*
X0026204Y0092389D01*
X0026089Y0092468D01*
X0025971Y0092545D01*
X0025851Y0092618D01*
X0025730Y0092687D01*
X0025606Y0092753D01*
X0025480Y0092816D01*
X0025353Y0092875D01*
X0025224Y0092930D01*
X0025094Y0092982D01*
X0024962Y0093030D01*
X0024829Y0093075D01*
X0024695Y0093116D01*
X0024560Y0093153D01*
X0024424Y0093186D01*
X0024286Y0093215D01*
X0024149Y0093240D01*
X0024010Y0093262D01*
X0023871Y0093280D01*
X0023731Y0093293D01*
X0023591Y0093303D01*
X0023451Y0093309D01*
X0023311Y0093311D01*
X0026736Y0106736D02*
X0027016Y0106733D01*
X0027295Y0106722D01*
X0027574Y0106706D01*
X0027853Y0106682D01*
X0028131Y0106652D01*
X0028408Y0106615D01*
X0028685Y0106571D01*
X0028960Y0106520D01*
X0029234Y0106463D01*
X0029506Y0106400D01*
X0029777Y0106329D01*
X0030046Y0106253D01*
X0030313Y0106169D01*
X0030578Y0106080D01*
X0030841Y0105984D01*
X0031101Y0105881D01*
X0031359Y0105773D01*
X0031614Y0105658D01*
X0031866Y0105537D01*
X0032115Y0105410D01*
X0032361Y0105277D01*
X0032604Y0105138D01*
X0032843Y0104994D01*
X0033079Y0104843D01*
X0033311Y0104687D01*
X0033540Y0104525D01*
X0033764Y0104358D01*
X0033984Y0104186D01*
X0034200Y0104008D01*
X0034412Y0103825D01*
X0034619Y0103637D01*
X0034821Y0103444D01*
X0035019Y0103246D01*
X0035212Y0103044D01*
X0035400Y0102837D01*
X0035583Y0102625D01*
X0035761Y0102409D01*
X0035933Y0102189D01*
X0036100Y0101965D01*
X0036262Y0101736D01*
X0036418Y0101504D01*
X0036569Y0101268D01*
X0036713Y0101029D01*
X0036852Y0100786D01*
X0036985Y0100540D01*
X0037112Y0100291D01*
X0037233Y0100039D01*
X0037348Y0099784D01*
X0037456Y0099526D01*
X0037559Y0099266D01*
X0037655Y0099003D01*
X0037744Y0098738D01*
X0037828Y0098471D01*
X0037904Y0098202D01*
X0037975Y0097931D01*
X0038038Y0097659D01*
X0038095Y0097385D01*
X0038146Y0097110D01*
X0038190Y0096833D01*
X0038227Y0096556D01*
X0038257Y0096278D01*
X0038281Y0095999D01*
X0038297Y0095720D01*
X0038308Y0095441D01*
X0038311Y0095161D01*
X0038311Y0088311D01*
X0038311Y0083311D01*
X0038311Y0065161D01*
X0038313Y0064957D01*
X0038321Y0064754D01*
X0038333Y0064551D01*
X0038350Y0064348D01*
X0038372Y0064145D01*
X0038399Y0063944D01*
X0038431Y0063743D01*
X0038468Y0063542D01*
X0038509Y0063343D01*
X0038556Y0063145D01*
X0038607Y0062948D01*
X0038663Y0062752D01*
X0038723Y0062558D01*
X0038789Y0062365D01*
X0038858Y0062173D01*
X0038933Y0061984D01*
X0039012Y0061796D01*
X0039096Y0061611D01*
X0039184Y0061427D01*
X0039276Y0061246D01*
X0039373Y0061067D01*
X0039474Y0060890D01*
X0039579Y0060716D01*
X0039689Y0060544D01*
X0039802Y0060375D01*
X0039920Y0060209D01*
X0040042Y0060046D01*
X0040167Y0059885D01*
X0040297Y0059728D01*
X0040430Y0059574D01*
X0040567Y0059423D01*
X0040707Y0059276D01*
X0040851Y0059132D01*
X0040998Y0058992D01*
X0041149Y0058855D01*
X0041303Y0058722D01*
X0041460Y0058592D01*
X0041621Y0058467D01*
X0041784Y0058345D01*
X0041950Y0058227D01*
X0042119Y0058114D01*
X0042291Y0058004D01*
X0042465Y0057899D01*
X0042642Y0057798D01*
X0042821Y0057701D01*
X0043002Y0057609D01*
X0043186Y0057521D01*
X0043371Y0057437D01*
X0043559Y0057358D01*
X0043748Y0057283D01*
X0043940Y0057214D01*
X0044133Y0057148D01*
X0044327Y0057088D01*
X0044523Y0057032D01*
X0044720Y0056981D01*
X0044918Y0056934D01*
X0045117Y0056893D01*
X0045318Y0056856D01*
X0045519Y0056824D01*
X0045720Y0056797D01*
X0045923Y0056775D01*
X0046126Y0056758D01*
X0046329Y0056746D01*
X0046532Y0056738D01*
X0046736Y0056736D01*
X0050769Y0053274D02*
X0082703Y0053274D01*
X0082243Y0053734D02*
X0083734Y0052243D01*
X0084958Y0051736D01*
X0083734Y0051229D01*
X0082243Y0049738D01*
X0081436Y0047790D01*
X0081436Y0045682D01*
X0082243Y0043734D01*
X0083734Y0042243D01*
X0085682Y0041436D01*
X0087790Y0041436D01*
X0089738Y0042243D01*
X0091229Y0043734D01*
X0091479Y0044336D01*
X0092065Y0044336D01*
X0094665Y0041736D01*
X0098807Y0041736D01*
X0101736Y0044665D01*
X0101736Y0048807D01*
X0098807Y0051736D01*
X0094665Y0051736D01*
X0092065Y0049136D01*
X0091479Y0049136D01*
X0091229Y0049738D01*
X0089738Y0051229D01*
X0088515Y0051736D01*
X0089738Y0052243D01*
X0091229Y0053734D01*
X0091479Y0054336D01*
X0092065Y0054336D01*
X0094665Y0051736D01*
X0098807Y0051736D01*
X0101736Y0054665D01*
X0101736Y0058807D01*
X0098807Y0061736D01*
X0094665Y0061736D01*
X0092065Y0059136D01*
X0091479Y0059136D01*
X0091229Y0059738D01*
X0089738Y0061229D01*
X0088515Y0061736D01*
X0089738Y0062243D01*
X0091229Y0063734D01*
X0091479Y0064336D01*
X0092065Y0064336D01*
X0094665Y0061736D01*
X0098807Y0061736D01*
X0101736Y0064665D01*
X0101736Y0068807D01*
X0098807Y0071736D01*
X0094665Y0071736D01*
X0092065Y0069136D01*
X0091479Y0069136D01*
X0091229Y0069738D01*
X0089738Y0071229D01*
X0087790Y0072036D01*
X0085682Y0072036D01*
X0083734Y0071229D01*
X0082243Y0069738D01*
X0081436Y0067790D01*
X0081436Y0065682D01*
X0082243Y0063734D01*
X0083734Y0062243D01*
X0084958Y0061736D01*
X0083734Y0061229D01*
X0082243Y0059738D01*
X0081436Y0057790D01*
X0081436Y0055682D01*
X0082243Y0053734D01*
X0081772Y0054872D02*
X0051701Y0054872D01*
X0052036Y0056471D02*
X0081436Y0056471D01*
X0081552Y0058069D02*
X0051921Y0058069D01*
X0051259Y0059668D02*
X0082214Y0059668D01*
X0083823Y0061266D02*
X0049649Y0061266D01*
X0050360Y0062865D02*
X0083112Y0062865D01*
X0081941Y0064463D02*
X0051531Y0064463D01*
X0052036Y0066062D02*
X0081436Y0066062D01*
X0081436Y0067660D02*
X0052036Y0067660D01*
X0051428Y0069259D02*
X0082044Y0069259D01*
X0083362Y0070857D02*
X0050110Y0070857D01*
X0049710Y0072456D02*
X0205361Y0072456D01*
X0205361Y0074054D02*
X0049992Y0074054D01*
X0050274Y0075653D02*
X0205361Y0075653D01*
X0205361Y0077251D02*
X0050703Y0077251D01*
X0051284Y0078850D02*
X0205361Y0078850D01*
X0205361Y0080448D02*
X0051866Y0080448D01*
X0052448Y0082047D02*
X0205361Y0082047D01*
X0205361Y0083646D02*
X0053247Y0083646D01*
X0054170Y0085244D02*
X0205361Y0085244D01*
X0205361Y0086843D02*
X0055093Y0086843D01*
X0056052Y0088441D02*
X0205361Y0088441D01*
X0205361Y0090040D02*
X0057393Y0090040D01*
X0056736Y0106736D02*
X0056291Y0106731D01*
X0055846Y0106714D01*
X0055401Y0106688D01*
X0054958Y0106650D01*
X0054515Y0106602D01*
X0054074Y0106543D01*
X0053634Y0106473D01*
X0053196Y0106393D01*
X0052760Y0106302D01*
X0052327Y0106201D01*
X0051896Y0106089D01*
X0051467Y0105967D01*
X0051042Y0105834D01*
X0050621Y0105692D01*
X0050202Y0105539D01*
X0049788Y0105376D01*
X0049378Y0105203D01*
X0048972Y0105020D01*
X0048570Y0104828D01*
X0048173Y0104626D01*
X0047782Y0104414D01*
X0047395Y0104193D01*
X0047014Y0103962D01*
X0046639Y0103723D01*
X0046269Y0103474D01*
X0045906Y0103217D01*
X0045549Y0102951D01*
X0045199Y0102676D01*
X0044855Y0102394D01*
X0044518Y0102102D01*
X0044188Y0101803D01*
X0043866Y0101496D01*
X0043551Y0101181D01*
X0043244Y0100859D01*
X0042945Y0100529D01*
X0042653Y0100192D01*
X0042371Y0099848D01*
X0042096Y0099498D01*
X0041830Y0099141D01*
X0041573Y0098778D01*
X0041324Y0098408D01*
X0041085Y0098033D01*
X0040854Y0097652D01*
X0040633Y0097265D01*
X0040421Y0096874D01*
X0040219Y0096477D01*
X0040027Y0096075D01*
X0039844Y0095669D01*
X0039671Y0095259D01*
X0039508Y0094845D01*
X0039355Y0094426D01*
X0039213Y0094005D01*
X0039080Y0093580D01*
X0038958Y0093151D01*
X0038846Y0092720D01*
X0038745Y0092287D01*
X0038654Y0091851D01*
X0038574Y0091413D01*
X0038504Y0090973D01*
X0038445Y0090532D01*
X0038397Y0090089D01*
X0038359Y0089646D01*
X0038333Y0089201D01*
X0038316Y0088756D01*
X0038311Y0088311D01*
X0028311Y0088311D02*
X0028311Y0065161D01*
X0028316Y0064716D01*
X0028333Y0064271D01*
X0028359Y0063826D01*
X0028397Y0063383D01*
X0028445Y0062940D01*
X0028504Y0062499D01*
X0028574Y0062059D01*
X0028654Y0061621D01*
X0028745Y0061185D01*
X0028846Y0060752D01*
X0028958Y0060321D01*
X0029080Y0059892D01*
X0029213Y0059467D01*
X0029355Y0059046D01*
X0029508Y0058627D01*
X0029671Y0058213D01*
X0029844Y0057803D01*
X0030027Y0057397D01*
X0030219Y0056995D01*
X0030421Y0056598D01*
X0030633Y0056207D01*
X0030854Y0055820D01*
X0031085Y0055439D01*
X0031324Y0055064D01*
X0031573Y0054694D01*
X0031830Y0054331D01*
X0032096Y0053974D01*
X0032371Y0053624D01*
X0032653Y0053280D01*
X0032945Y0052943D01*
X0033244Y0052613D01*
X0033551Y0052291D01*
X0033866Y0051976D01*
X0034188Y0051669D01*
X0034518Y0051370D01*
X0034855Y0051078D01*
X0035199Y0050796D01*
X0035549Y0050521D01*
X0035906Y0050255D01*
X0036269Y0049998D01*
X0036639Y0049749D01*
X0037014Y0049510D01*
X0037395Y0049279D01*
X0037782Y0049058D01*
X0038173Y0048846D01*
X0038570Y0048644D01*
X0038972Y0048452D01*
X0039378Y0048269D01*
X0039788Y0048096D01*
X0040202Y0047933D01*
X0040621Y0047780D01*
X0041042Y0047638D01*
X0041467Y0047505D01*
X0041896Y0047383D01*
X0042327Y0047271D01*
X0042760Y0047170D01*
X0043196Y0047079D01*
X0043634Y0046999D01*
X0044074Y0046929D01*
X0044515Y0046870D01*
X0044958Y0046822D01*
X0045401Y0046784D01*
X0045846Y0046758D01*
X0046291Y0046741D01*
X0046736Y0046736D01*
X0050891Y0050077D02*
X0082581Y0050077D01*
X0081721Y0048478D02*
X0051751Y0048478D01*
X0052036Y0046880D02*
X0081436Y0046880D01*
X0081602Y0045281D02*
X0051870Y0045281D01*
X0051178Y0043683D02*
X0082294Y0043683D01*
X0084118Y0042084D02*
X0049355Y0042084D01*
X0048662Y0051675D02*
X0084811Y0051675D01*
X0088662Y0051675D02*
X0094604Y0051675D01*
X0093128Y0053274D02*
X0090769Y0053274D01*
X0090891Y0050077D02*
X0093006Y0050077D01*
X0096736Y0046736D02*
X0086736Y0046736D01*
X0089355Y0042084D02*
X0094317Y0042084D01*
X0092719Y0043683D02*
X0091178Y0043683D01*
X0099155Y0042084D02*
X0124317Y0042084D01*
X0124665Y0041736D02*
X0121736Y0038807D01*
X0121736Y0034665D01*
X0124665Y0031736D01*
X0128807Y0031736D01*
X0131736Y0034665D01*
X0131736Y0038807D01*
X0128807Y0041736D01*
X0124665Y0041736D01*
X0128807Y0041736D01*
X0131736Y0044665D01*
X0131736Y0048807D01*
X0128807Y0051736D01*
X0124665Y0051736D01*
X0121736Y0048807D01*
X0121736Y0044665D01*
X0124665Y0041736D01*
X0123415Y0040486D02*
X0100058Y0040486D01*
X0101656Y0038887D02*
X0121816Y0038887D01*
X0121736Y0037289D02*
X0101736Y0037289D01*
X0101736Y0035690D02*
X0121736Y0035690D01*
X0122310Y0034092D02*
X0101163Y0034092D01*
X0099564Y0032493D02*
X0123908Y0032493D01*
X0129564Y0032493D02*
X0205361Y0032493D01*
X0205361Y0034092D02*
X0131163Y0034092D01*
X0131736Y0035690D02*
X0205361Y0035690D01*
X0205361Y0037289D02*
X0131736Y0037289D01*
X0131656Y0038887D02*
X0205361Y0038887D01*
X0205361Y0040486D02*
X0130058Y0040486D01*
X0129155Y0042084D02*
X0140291Y0042084D01*
X0139438Y0042438D02*
X0141386Y0041631D01*
X0143494Y0041631D01*
X0145442Y0042438D01*
X0146933Y0043928D01*
X0147740Y0045876D01*
X0147740Y0047985D01*
X0146933Y0049933D01*
X0145442Y0051424D01*
X0143494Y0052231D01*
X0141386Y0052231D01*
X0139438Y0051424D01*
X0137947Y0049933D01*
X0137140Y0047985D01*
X0137140Y0045876D01*
X0137947Y0043928D01*
X0139438Y0042438D01*
X0138193Y0043683D02*
X0130754Y0043683D01*
X0131736Y0045281D02*
X0137387Y0045281D01*
X0137140Y0046880D02*
X0131736Y0046880D01*
X0131736Y0048478D02*
X0137345Y0048478D01*
X0138091Y0050077D02*
X0130467Y0050077D01*
X0128868Y0051675D02*
X0140045Y0051675D01*
X0144835Y0051675D02*
X0165645Y0051675D01*
X0165038Y0051424D02*
X0166986Y0052231D01*
X0169094Y0052231D01*
X0171042Y0051424D01*
X0172533Y0049933D01*
X0173340Y0047985D01*
X0173340Y0045876D01*
X0172533Y0043928D01*
X0171042Y0042438D01*
X0169094Y0041631D01*
X0166986Y0041631D01*
X0165038Y0042438D01*
X0163547Y0043928D01*
X0162740Y0045876D01*
X0162740Y0047985D01*
X0163547Y0049933D01*
X0165038Y0051424D01*
X0163691Y0050077D02*
X0146789Y0050077D01*
X0147536Y0048478D02*
X0162945Y0048478D01*
X0162740Y0046880D02*
X0147740Y0046880D01*
X0147494Y0045281D02*
X0162987Y0045281D01*
X0163793Y0043683D02*
X0146688Y0043683D01*
X0144589Y0042084D02*
X0165891Y0042084D01*
X0170189Y0042084D02*
X0205361Y0042084D01*
X0205361Y0043683D02*
X0172288Y0043683D01*
X0173094Y0045281D02*
X0205361Y0045281D01*
X0205361Y0046880D02*
X0173340Y0046880D01*
X0173136Y0048478D02*
X0205361Y0048478D01*
X0205361Y0050077D02*
X0172389Y0050077D01*
X0170435Y0051675D02*
X0205361Y0051675D01*
X0205361Y0053274D02*
X0130345Y0053274D01*
X0131736Y0054665D02*
X0131736Y0058807D01*
X0128949Y0061595D01*
X0131936Y0064582D01*
X0131936Y0066736D01*
X0126736Y0066736D01*
X0121536Y0066736D01*
X0121536Y0064582D01*
X0124524Y0061595D01*
X0121736Y0058807D01*
X0121736Y0054665D01*
X0124665Y0051736D01*
X0128807Y0051736D01*
X0131736Y0054665D01*
X0131736Y0054872D02*
X0205361Y0054872D01*
X0205361Y0056471D02*
X0131736Y0056471D01*
X0131736Y0058069D02*
X0205361Y0058069D01*
X0205361Y0059668D02*
X0169667Y0059668D01*
X0169094Y0059431D02*
X0171042Y0060238D01*
X0172533Y0061728D01*
X0173340Y0063676D01*
X0173340Y0065785D01*
X0172533Y0067733D01*
X0171042Y0069224D01*
X0169094Y0070031D01*
X0166986Y0070031D01*
X0165038Y0069224D01*
X0163547Y0067733D01*
X0162740Y0065785D01*
X0162740Y0063676D01*
X0163547Y0061728D01*
X0165038Y0060238D01*
X0166986Y0059431D01*
X0169094Y0059431D01*
X0166413Y0059668D02*
X0144619Y0059668D01*
X0144551Y0059634D02*
X0145323Y0060027D01*
X0146023Y0060536D01*
X0146635Y0061148D01*
X0147144Y0061848D01*
X0147537Y0062619D01*
X0147805Y0063443D01*
X0147940Y0064298D01*
X0147940Y0064531D01*
X0142640Y0064531D01*
X0142640Y0064931D01*
X0142240Y0064931D01*
X0142240Y0070231D01*
X0142007Y0070231D01*
X0141152Y0070095D01*
X0140329Y0069828D01*
X0139558Y0069435D01*
X0138857Y0068926D01*
X0138245Y0068314D01*
X0137736Y0067613D01*
X0137343Y0066842D01*
X0137076Y0066019D01*
X0136940Y0065164D01*
X0136940Y0064931D01*
X0142240Y0064931D01*
X0142240Y0064531D01*
X0136940Y0064531D01*
X0136940Y0064298D01*
X0137076Y0063443D01*
X0137343Y0062619D01*
X0137736Y0061848D01*
X0138245Y0061148D01*
X0138857Y0060536D01*
X0139558Y0060027D01*
X0140329Y0059634D01*
X0141152Y0059366D01*
X0142007Y0059231D01*
X0142240Y0059231D01*
X0142240Y0064531D01*
X0142640Y0064531D01*
X0142640Y0059231D01*
X0142873Y0059231D01*
X0143728Y0059366D01*
X0144551Y0059634D01*
X0142640Y0059668D02*
X0142240Y0059668D01*
X0142240Y0061266D02*
X0142640Y0061266D01*
X0142640Y0062865D02*
X0142240Y0062865D01*
X0142240Y0064463D02*
X0142640Y0064463D01*
X0142640Y0064931D02*
X0147940Y0064931D01*
X0147940Y0065164D01*
X0147805Y0066019D01*
X0147537Y0066842D01*
X0147144Y0067613D01*
X0146635Y0068314D01*
X0146023Y0068926D01*
X0145323Y0069435D01*
X0144551Y0069828D01*
X0143728Y0070095D01*
X0142873Y0070231D01*
X0142640Y0070231D01*
X0142640Y0064931D01*
X0142640Y0066062D02*
X0142240Y0066062D01*
X0142240Y0067660D02*
X0142640Y0067660D01*
X0142640Y0069259D02*
X0142240Y0069259D01*
X0139316Y0069259D02*
X0131567Y0069259D01*
X0131936Y0068890D02*
X0131936Y0066736D01*
X0126736Y0066736D01*
X0126736Y0066736D01*
X0121536Y0066736D01*
X0121536Y0068890D01*
X0124582Y0071936D01*
X0126736Y0071936D01*
X0126736Y0066736D01*
X0126736Y0066736D01*
X0126736Y0066736D01*
X0126736Y0071936D01*
X0128890Y0071936D01*
X0131936Y0068890D01*
X0131936Y0067660D02*
X0137770Y0067660D01*
X0137090Y0066062D02*
X0131936Y0066062D01*
X0131817Y0064463D02*
X0136940Y0064463D01*
X0137263Y0062865D02*
X0130219Y0062865D01*
X0129277Y0061266D02*
X0138159Y0061266D01*
X0140262Y0059668D02*
X0130876Y0059668D01*
X0124195Y0061266D02*
X0099277Y0061266D01*
X0099936Y0062865D02*
X0123254Y0062865D01*
X0121655Y0064463D02*
X0101534Y0064463D01*
X0101736Y0066062D02*
X0121536Y0066062D01*
X0121536Y0067660D02*
X0101736Y0067660D01*
X0101285Y0069259D02*
X0121905Y0069259D01*
X0123504Y0070857D02*
X0099686Y0070857D01*
X0096736Y0066736D02*
X0086736Y0066736D01*
X0086736Y0106736D02*
X0085769Y0106724D01*
X0084803Y0106689D01*
X0083839Y0106631D01*
X0082875Y0106549D01*
X0081915Y0106444D01*
X0080956Y0106316D01*
X0080002Y0106165D01*
X0079051Y0105991D01*
X0078105Y0105794D01*
X0077163Y0105574D01*
X0076228Y0105331D01*
X0075298Y0105066D01*
X0074375Y0104778D01*
X0073460Y0104468D01*
X0072552Y0104137D01*
X0071652Y0103783D01*
X0070761Y0103408D01*
X0069880Y0103011D01*
X0069008Y0102593D01*
X0068147Y0102154D01*
X0067297Y0101695D01*
X0066458Y0101215D01*
X0065630Y0100715D01*
X0064815Y0100195D01*
X0064013Y0099655D01*
X0063225Y0099097D01*
X0062449Y0098519D01*
X0061689Y0097923D01*
X0060942Y0097309D01*
X0060211Y0096676D01*
X0059495Y0096027D01*
X0058796Y0095360D01*
X0058112Y0094676D01*
X0057445Y0093977D01*
X0056796Y0093261D01*
X0056163Y0092530D01*
X0055549Y0091783D01*
X0054953Y0091023D01*
X0054375Y0090247D01*
X0053817Y0089459D01*
X0053277Y0088657D01*
X0052757Y0087842D01*
X0052257Y0087014D01*
X0051777Y0086175D01*
X0051318Y0085325D01*
X0050879Y0084464D01*
X0050461Y0083592D01*
X0050064Y0082711D01*
X0049689Y0081820D01*
X0049335Y0080920D01*
X0049004Y0080012D01*
X0048694Y0079097D01*
X0048406Y0078174D01*
X0048141Y0077244D01*
X0047898Y0076309D01*
X0047678Y0075367D01*
X0047481Y0074421D01*
X0047307Y0073470D01*
X0047156Y0072516D01*
X0047028Y0071557D01*
X0046923Y0070597D01*
X0046841Y0069633D01*
X0046783Y0068669D01*
X0046748Y0067703D01*
X0046736Y0066736D01*
X0029069Y0042084D02*
X0018111Y0042084D01*
X0018111Y0040486D02*
X0026486Y0040486D01*
X0024888Y0038887D02*
X0018111Y0038887D01*
X0018111Y0037289D02*
X0024059Y0037289D01*
X0023397Y0035690D02*
X0018111Y0035690D01*
X0018111Y0034092D02*
X0023097Y0034092D01*
X0023097Y0032493D02*
X0018111Y0032493D01*
X0018111Y0030895D02*
X0023152Y0030895D01*
X0023814Y0029296D02*
X0018111Y0029296D01*
X0018111Y0027698D02*
X0024476Y0027698D01*
X0025893Y0026099D02*
X0018240Y0026099D01*
X0018668Y0024501D02*
X0027638Y0024501D01*
X0022388Y0019705D02*
X0201084Y0019705D01*
X0205361Y0061266D02*
X0172071Y0061266D01*
X0173004Y0062865D02*
X0205361Y0062865D01*
X0205361Y0064463D02*
X0173340Y0064463D01*
X0173225Y0066062D02*
X0205361Y0066062D01*
X0205361Y0067660D02*
X0172563Y0067660D01*
X0170958Y0069259D02*
X0205361Y0069259D01*
X0205361Y0070857D02*
X0129969Y0070857D01*
X0126736Y0070857D02*
X0126736Y0070857D01*
X0126736Y0069259D02*
X0126736Y0069259D01*
X0126736Y0067660D02*
X0126736Y0067660D01*
X0122597Y0059668D02*
X0100876Y0059668D01*
X0101736Y0058069D02*
X0121736Y0058069D01*
X0121736Y0056471D02*
X0101736Y0056471D01*
X0101736Y0054872D02*
X0121736Y0054872D01*
X0123128Y0053274D02*
X0100345Y0053274D01*
X0098868Y0051675D02*
X0124604Y0051675D01*
X0123006Y0050077D02*
X0100467Y0050077D01*
X0101736Y0048478D02*
X0121736Y0048478D01*
X0121736Y0046880D02*
X0101736Y0046880D01*
X0101736Y0045281D02*
X0121736Y0045281D01*
X0122719Y0043683D02*
X0100754Y0043683D01*
X0096736Y0056736D02*
X0086736Y0056736D01*
X0089649Y0061266D02*
X0094195Y0061266D01*
X0093537Y0062865D02*
X0090360Y0062865D01*
X0091259Y0059668D02*
X0092597Y0059668D01*
X0092188Y0069259D02*
X0091428Y0069259D01*
X0090110Y0070857D02*
X0093786Y0070857D01*
X0066028Y0098032D02*
X0205361Y0098032D01*
X0205361Y0096434D02*
X0063856Y0096434D01*
X0061951Y0094835D02*
X0205361Y0094835D01*
X0205361Y0093237D02*
X0060076Y0093237D01*
X0058735Y0091638D02*
X0205361Y0091638D01*
X0205361Y0099631D02*
X0068797Y0099631D01*
X0071988Y0101229D02*
X0205361Y0101229D01*
X0205361Y0102828D02*
X0200323Y0102828D01*
X0201516Y0104426D02*
X0205361Y0104426D01*
X0205361Y0106025D02*
X0202036Y0106025D01*
X0202036Y0107623D02*
X0205361Y0107623D01*
X0205361Y0109222D02*
X0201443Y0109222D01*
X0200148Y0110820D02*
X0205361Y0110820D01*
X0205361Y0112419D02*
X0199914Y0112419D01*
X0201347Y0114017D02*
X0205361Y0114017D01*
X0205361Y0115616D02*
X0202009Y0115616D01*
X0202036Y0117214D02*
X0205361Y0117214D01*
X0205361Y0118813D02*
X0201613Y0118813D01*
X0200556Y0120411D02*
X0205361Y0120411D01*
X0205361Y0122010D02*
X0197854Y0122010D01*
X0195618Y0122010D02*
X0167854Y0122010D01*
X0165972Y0123608D02*
X0205361Y0123608D01*
X0205361Y0125207D02*
X0163135Y0125207D01*
X0160161Y0123311D02*
X0063311Y0123311D01*
X0060338Y0125207D02*
X0018111Y0125207D01*
X0018111Y0126805D02*
X0205361Y0126805D01*
X0205361Y0128404D02*
X0018111Y0128404D01*
X0018111Y0130002D02*
X0205361Y0130002D01*
X0205361Y0131601D02*
X0018111Y0131601D01*
X0018111Y0133199D02*
X0205361Y0133199D01*
X0205361Y0134798D02*
X0018111Y0134798D01*
X0018111Y0136396D02*
X0205361Y0136396D01*
X0205361Y0137995D02*
X0018111Y0137995D01*
X0018111Y0139593D02*
X0205361Y0139593D01*
X0205361Y0141192D02*
X0018111Y0141192D01*
X0018111Y0142790D02*
X0205361Y0142790D01*
X0205361Y0144389D02*
X0018111Y0144389D01*
X0018111Y0145987D02*
X0205361Y0145987D01*
X0205361Y0147586D02*
X0018111Y0147586D01*
X0018111Y0149184D02*
X0205361Y0149184D01*
X0205361Y0150783D02*
X0018111Y0150783D01*
X0018111Y0152382D02*
X0205361Y0152382D01*
X0205361Y0153980D02*
X0018111Y0153980D01*
X0018111Y0155579D02*
X0205361Y0155579D01*
X0205361Y0157177D02*
X0018111Y0157177D01*
X0018111Y0158776D02*
X0205361Y0158776D01*
X0205361Y0160374D02*
X0154489Y0160374D01*
X0154780Y0160585D02*
X0155407Y0161213D01*
X0155929Y0161931D01*
X0156332Y0162721D01*
X0156606Y0163565D01*
X0156739Y0164406D01*
X0151586Y0164406D01*
X0151586Y0159253D01*
X0152427Y0159386D01*
X0153271Y0159660D01*
X0154062Y0160063D01*
X0154780Y0160585D01*
X0155950Y0161973D02*
X0205361Y0161973D01*
X0205361Y0163571D02*
X0156607Y0163571D01*
X0156739Y0165365D02*
X0156606Y0166206D01*
X0156332Y0167050D01*
X0155929Y0167841D01*
X0155407Y0168559D01*
X0154780Y0169187D01*
X0154062Y0169708D01*
X0153271Y0170111D01*
X0152427Y0170386D01*
X0151586Y0170519D01*
X0151586Y0165365D01*
X0156739Y0165365D01*
X0156423Y0166768D02*
X0205361Y0166768D01*
X0205361Y0165170D02*
X0151586Y0165170D01*
X0151586Y0165365D02*
X0151586Y0164406D01*
X0150627Y0164406D01*
X0150627Y0159253D01*
X0149786Y0159386D01*
X0148942Y0159660D01*
X0148151Y0160063D01*
X0147433Y0160585D01*
X0146805Y0161213D01*
X0146284Y0161931D01*
X0145881Y0162721D01*
X0145607Y0163565D01*
X0145473Y0164406D01*
X0150627Y0164406D01*
X0150627Y0165365D01*
X0145473Y0165365D01*
X0145607Y0166206D01*
X0145881Y0167050D01*
X0146284Y0167841D01*
X0146805Y0168559D01*
X0147433Y0169187D01*
X0148151Y0169708D01*
X0148942Y0170111D01*
X0149786Y0170386D01*
X0150627Y0170519D01*
X0150627Y0165365D01*
X0151586Y0165365D01*
X0150627Y0165170D02*
X0077805Y0165170D01*
X0077805Y0165968D02*
X0077805Y0163804D01*
X0076977Y0161805D01*
X0075447Y0160275D01*
X0073448Y0159447D01*
X0071284Y0159447D01*
X0069285Y0160275D01*
X0067756Y0161805D01*
X0066928Y0163804D01*
X0066928Y0165968D01*
X0067756Y0167967D01*
X0069285Y0169496D01*
X0071284Y0170324D01*
X0073448Y0170324D01*
X0075447Y0169496D01*
X0076977Y0167967D01*
X0077805Y0165968D01*
X0077473Y0166768D02*
X0145789Y0166768D01*
X0146666Y0168367D02*
X0076577Y0168367D01*
X0074315Y0169965D02*
X0148655Y0169965D01*
X0150627Y0169965D02*
X0151586Y0169965D01*
X0151586Y0168367D02*
X0150627Y0168367D01*
X0150627Y0166768D02*
X0151586Y0166768D01*
X0151586Y0163571D02*
X0150627Y0163571D01*
X0150627Y0161973D02*
X0151586Y0161973D01*
X0151586Y0160374D02*
X0150627Y0160374D01*
X0147723Y0160374D02*
X0075546Y0160374D01*
X0077046Y0161973D02*
X0146262Y0161973D01*
X0145606Y0163571D02*
X0077708Y0163571D01*
X0070417Y0169965D02*
X0018111Y0169965D01*
X0018111Y0168367D02*
X0068156Y0168367D01*
X0067259Y0166768D02*
X0018111Y0166768D01*
X0018111Y0165170D02*
X0066928Y0165170D01*
X0067024Y0163571D02*
X0018111Y0163571D01*
X0018111Y0161973D02*
X0067686Y0161973D01*
X0069187Y0160374D02*
X0018111Y0160374D01*
X0018111Y0171564D02*
X0205361Y0171564D01*
X0205361Y0173162D02*
X0018111Y0173162D01*
X0018111Y0174761D02*
X0205361Y0174761D01*
X0205361Y0176359D02*
X0018111Y0176359D01*
X0018111Y0177958D02*
X0205361Y0177958D01*
X0205361Y0179556D02*
X0018111Y0179556D01*
X0018111Y0181155D02*
X0029633Y0181155D01*
X0031027Y0180577D02*
X0034965Y0180577D01*
X0038604Y0182084D01*
X0041388Y0184869D01*
X0042895Y0188507D01*
X0042895Y0192445D01*
X0041388Y0196084D01*
X0038604Y0198869D01*
X0034965Y0200376D01*
X0031027Y0200376D01*
X0027389Y0198869D01*
X0024604Y0196084D01*
X0023097Y0192445D01*
X0023097Y0188507D01*
X0024604Y0184869D01*
X0027389Y0182084D01*
X0031027Y0180577D01*
X0026720Y0182753D02*
X0018111Y0182753D01*
X0018111Y0184352D02*
X0025121Y0184352D01*
X0024156Y0185950D02*
X0018111Y0185950D01*
X0018111Y0187549D02*
X0023494Y0187549D01*
X0023097Y0189147D02*
X0018111Y0189147D01*
X0018111Y0190746D02*
X0023097Y0190746D01*
X0023097Y0192344D02*
X0018111Y0192344D01*
X0018111Y0193943D02*
X0023717Y0193943D01*
X0024379Y0195541D02*
X0018111Y0195541D01*
X0018188Y0197140D02*
X0025660Y0197140D01*
X0027258Y0198738D02*
X0018606Y0198738D01*
X0018826Y0199562D02*
X0018826Y0199562D01*
X0019274Y0200337D02*
X0030933Y0200337D01*
X0035059Y0200337D02*
X0188414Y0200337D01*
X0188507Y0200376D02*
X0184869Y0198869D01*
X0182084Y0196084D01*
X0180577Y0192445D01*
X0180577Y0188507D01*
X0182084Y0184869D01*
X0184869Y0182084D01*
X0188507Y0180577D01*
X0192445Y0180577D01*
X0196084Y0182084D01*
X0198869Y0184869D01*
X0200376Y0188507D01*
X0200376Y0192445D01*
X0198869Y0196084D01*
X0196084Y0198869D01*
X0192445Y0200376D01*
X0188507Y0200376D01*
X0192539Y0200337D02*
X0204199Y0200337D01*
X0204867Y0198738D02*
X0196214Y0198738D01*
X0197813Y0197140D02*
X0205284Y0197140D01*
X0205361Y0195541D02*
X0199093Y0195541D01*
X0199755Y0193943D02*
X0205361Y0193943D01*
X0205361Y0192344D02*
X0200376Y0192344D01*
X0200376Y0190746D02*
X0205361Y0190746D01*
X0205361Y0189147D02*
X0200376Y0189147D01*
X0199979Y0187549D02*
X0205361Y0187549D01*
X0205361Y0185950D02*
X0199316Y0185950D01*
X0198351Y0184352D02*
X0205361Y0184352D01*
X0205361Y0182753D02*
X0196753Y0182753D01*
X0193840Y0181155D02*
X0205361Y0181155D01*
X0205361Y0169965D02*
X0153558Y0169965D01*
X0155547Y0168367D02*
X0205361Y0168367D01*
X0187113Y0181155D02*
X0036359Y0181155D01*
X0039273Y0182753D02*
X0184200Y0182753D01*
X0182601Y0184352D02*
X0040871Y0184352D01*
X0041836Y0185950D02*
X0181636Y0185950D01*
X0180974Y0187549D02*
X0042498Y0187549D01*
X0042895Y0189147D02*
X0180577Y0189147D01*
X0180577Y0190746D02*
X0042895Y0190746D01*
X0042895Y0192344D02*
X0180577Y0192344D01*
X0181197Y0193943D02*
X0042275Y0193943D01*
X0041613Y0195541D02*
X0181860Y0195541D01*
X0183140Y0197140D02*
X0040332Y0197140D01*
X0038734Y0198738D02*
X0184739Y0198738D01*
X0197747Y0205132D02*
X0025725Y0205132D01*
X0021984Y0203534D02*
X0201488Y0203534D01*
X0203170Y0201935D02*
X0020302Y0201935D01*
X0018111Y0123608D02*
X0057501Y0123608D01*
X0056886Y0123161D02*
X0056886Y0123161D01*
X0055618Y0122010D02*
X0027854Y0122010D01*
X0025618Y0122010D02*
X0018111Y0122010D01*
X0018111Y0120411D02*
X0022916Y0120411D01*
X0021860Y0118813D02*
X0018111Y0118813D01*
X0018111Y0117214D02*
X0020574Y0117214D01*
X0018986Y0116061D02*
X0018986Y0116061D01*
X0018663Y0115616D02*
X0018111Y0115616D01*
X0018311Y0108311D02*
X0018311Y0098311D01*
X0018313Y0098171D01*
X0018319Y0098031D01*
X0018329Y0097891D01*
X0018342Y0097751D01*
X0018360Y0097612D01*
X0018382Y0097473D01*
X0018407Y0097336D01*
X0018436Y0097198D01*
X0018469Y0097062D01*
X0018506Y0096927D01*
X0018547Y0096793D01*
X0018592Y0096660D01*
X0018640Y0096528D01*
X0018692Y0096398D01*
X0018747Y0096269D01*
X0018806Y0096142D01*
X0018869Y0096016D01*
X0018935Y0095892D01*
X0019004Y0095771D01*
X0019077Y0095651D01*
X0019154Y0095533D01*
X0019233Y0095418D01*
X0019316Y0095304D01*
X0019402Y0095194D01*
X0019491Y0095085D01*
X0019583Y0094979D01*
X0019678Y0094876D01*
X0019775Y0094775D01*
X0019876Y0094678D01*
X0019979Y0094583D01*
X0020085Y0094491D01*
X0020194Y0094402D01*
X0020304Y0094316D01*
X0020418Y0094233D01*
X0020533Y0094154D01*
X0020651Y0094077D01*
X0020771Y0094004D01*
X0020892Y0093935D01*
X0021016Y0093869D01*
X0021142Y0093806D01*
X0021269Y0093747D01*
X0021398Y0093692D01*
X0021528Y0093640D01*
X0021660Y0093592D01*
X0021793Y0093547D01*
X0021927Y0093506D01*
X0022062Y0093469D01*
X0022198Y0093436D01*
X0022336Y0093407D01*
X0022473Y0093382D01*
X0022612Y0093360D01*
X0022751Y0093342D01*
X0022891Y0093329D01*
X0023031Y0093319D01*
X0023171Y0093313D01*
X0023311Y0093311D01*
X0020084Y0091638D02*
X0018111Y0091638D01*
X0019119Y0092038D02*
X0019119Y0092038D01*
X0018311Y0108311D02*
X0018313Y0108515D01*
X0018321Y0108718D01*
X0018333Y0108921D01*
X0018350Y0109124D01*
X0018372Y0109327D01*
X0018399Y0109528D01*
X0018431Y0109729D01*
X0018468Y0109930D01*
X0018509Y0110129D01*
X0018556Y0110327D01*
X0018607Y0110524D01*
X0018663Y0110720D01*
X0018723Y0110914D01*
X0018789Y0111107D01*
X0018858Y0111299D01*
X0018933Y0111488D01*
X0019012Y0111676D01*
X0019096Y0111861D01*
X0019184Y0112045D01*
X0019276Y0112226D01*
X0019373Y0112405D01*
X0019474Y0112582D01*
X0019579Y0112756D01*
X0019689Y0112928D01*
X0019802Y0113097D01*
X0019920Y0113263D01*
X0020042Y0113426D01*
X0020167Y0113587D01*
X0020297Y0113744D01*
X0020430Y0113898D01*
X0020567Y0114049D01*
X0020707Y0114196D01*
X0020851Y0114340D01*
X0020998Y0114480D01*
X0021149Y0114617D01*
X0021303Y0114750D01*
X0021460Y0114880D01*
X0021621Y0115005D01*
X0021784Y0115127D01*
X0021950Y0115245D01*
X0022119Y0115358D01*
X0022291Y0115468D01*
X0022465Y0115573D01*
X0022642Y0115674D01*
X0022821Y0115771D01*
X0023002Y0115863D01*
X0023186Y0115951D01*
X0023371Y0116035D01*
X0023559Y0116114D01*
X0023748Y0116189D01*
X0023940Y0116258D01*
X0024133Y0116324D01*
X0024327Y0116384D01*
X0024523Y0116440D01*
X0024720Y0116491D01*
X0024918Y0116538D01*
X0025117Y0116579D01*
X0025318Y0116616D01*
X0025519Y0116648D01*
X0025720Y0116675D01*
X0025923Y0116697D01*
X0026126Y0116714D01*
X0026329Y0116726D01*
X0026532Y0116734D01*
X0026736Y0116736D01*
X0056736Y0116736D01*
X0052916Y0120411D02*
X0030556Y0120411D01*
X0056736Y0106736D02*
X0096736Y0116736D01*
X0126736Y0116736D01*
X0126736Y0106736D02*
X0166736Y0106736D01*
X0196736Y0106736D01*
X0193149Y0102828D02*
X0170323Y0102828D01*
X0163149Y0102828D02*
X0130323Y0102828D01*
X0126736Y0106736D02*
X0096736Y0106736D01*
X0086736Y0106736D01*
X0093149Y0102828D02*
X0076380Y0102828D01*
X0056736Y0116736D02*
X0056738Y0116897D01*
X0056744Y0117059D01*
X0056754Y0117220D01*
X0056768Y0117380D01*
X0056785Y0117541D01*
X0056807Y0117701D01*
X0056833Y0117860D01*
X0056862Y0118019D01*
X0056896Y0118177D01*
X0056933Y0118334D01*
X0056974Y0118490D01*
X0057019Y0118645D01*
X0057068Y0118798D01*
X0057120Y0118951D01*
X0057177Y0119102D01*
X0057236Y0119252D01*
X0057300Y0119400D01*
X0057367Y0119547D01*
X0057438Y0119692D01*
X0057512Y0119835D01*
X0057590Y0119977D01*
X0057671Y0120116D01*
X0057756Y0120254D01*
X0057844Y0120389D01*
X0057935Y0120522D01*
X0058030Y0120653D01*
X0058128Y0120781D01*
X0058228Y0120907D01*
X0058332Y0121031D01*
X0058439Y0121152D01*
X0058549Y0121270D01*
X0058662Y0121385D01*
X0058777Y0121498D01*
X0058895Y0121608D01*
X0059016Y0121715D01*
X0059140Y0121819D01*
X0059266Y0121919D01*
X0059394Y0122017D01*
X0059525Y0122112D01*
X0059658Y0122203D01*
X0059793Y0122291D01*
X0059931Y0122376D01*
X0060070Y0122457D01*
X0060212Y0122535D01*
X0060355Y0122609D01*
X0060500Y0122680D01*
X0060647Y0122747D01*
X0060795Y0122811D01*
X0060945Y0122870D01*
X0061096Y0122927D01*
X0061249Y0122979D01*
X0061402Y0123028D01*
X0061557Y0123073D01*
X0061713Y0123114D01*
X0061870Y0123151D01*
X0062028Y0123185D01*
X0062187Y0123214D01*
X0062346Y0123240D01*
X0062506Y0123262D01*
X0062667Y0123279D01*
X0062827Y0123293D01*
X0062988Y0123303D01*
X0063150Y0123309D01*
X0063311Y0123311D01*
X0059186Y0124832D02*
X0059186Y0124832D01*
X0100323Y0102828D02*
X0123149Y0102828D01*
X0160161Y0123311D02*
X0160322Y0123309D01*
X0160484Y0123303D01*
X0160645Y0123293D01*
X0160805Y0123279D01*
X0160966Y0123262D01*
X0161126Y0123240D01*
X0161285Y0123214D01*
X0161444Y0123185D01*
X0161602Y0123151D01*
X0161759Y0123114D01*
X0161915Y0123073D01*
X0162070Y0123028D01*
X0162223Y0122979D01*
X0162376Y0122927D01*
X0162527Y0122870D01*
X0162677Y0122811D01*
X0162825Y0122747D01*
X0162972Y0122680D01*
X0163117Y0122609D01*
X0163260Y0122535D01*
X0163402Y0122457D01*
X0163541Y0122376D01*
X0163679Y0122291D01*
X0163814Y0122203D01*
X0163947Y0122112D01*
X0164078Y0122017D01*
X0164206Y0121919D01*
X0164332Y0121819D01*
X0164456Y0121715D01*
X0164577Y0121608D01*
X0164695Y0121498D01*
X0164810Y0121385D01*
X0164923Y0121270D01*
X0165033Y0121152D01*
X0165140Y0121031D01*
X0165244Y0120907D01*
X0165344Y0120781D01*
X0165442Y0120653D01*
X0165537Y0120522D01*
X0165628Y0120389D01*
X0165716Y0120254D01*
X0165801Y0120116D01*
X0165882Y0119977D01*
X0165960Y0119835D01*
X0166034Y0119692D01*
X0166105Y0119547D01*
X0166172Y0119400D01*
X0166236Y0119252D01*
X0166295Y0119102D01*
X0166352Y0118951D01*
X0166404Y0118798D01*
X0166453Y0118645D01*
X0166498Y0118490D01*
X0166539Y0118334D01*
X0166576Y0118177D01*
X0166610Y0118019D01*
X0166639Y0117860D01*
X0166665Y0117701D01*
X0166687Y0117541D01*
X0166704Y0117380D01*
X0166718Y0117220D01*
X0166728Y0117059D01*
X0166734Y0116897D01*
X0166736Y0116736D01*
X0196736Y0116736D01*
X0192916Y0120411D02*
X0170556Y0120411D01*
X0165123Y0069259D02*
X0145565Y0069259D01*
X0147110Y0067660D02*
X0163517Y0067660D01*
X0162855Y0066062D02*
X0147791Y0066062D01*
X0147940Y0064463D02*
X0162740Y0064463D01*
X0163076Y0062865D02*
X0147617Y0062865D01*
X0146722Y0061266D02*
X0164009Y0061266D01*
D14*
X0198350Y0052681D03*
X0170791Y0025122D03*
X0052681Y0025122D03*
X0025122Y0052681D03*
X0025122Y0170791D03*
X0052681Y0198350D03*
X0170791Y0198350D03*
X0198350Y0170791D03*
D15*
X0190476Y0190476D03*
X0032996Y0190476D03*
X0032996Y0032996D03*
M02*
