G75*
%MOIN*%
%OFA0B0*%
%FSLAX25Y25*%
%IPPOS*%
%LPD*%
%AMOC8*
5,1,8,0,0,1.08239X$1,22.5*
%
%ADD10C,0.00000*%
D10*
X0013311Y0027506D02*
X0013311Y0195966D01*
X0013315Y0196309D01*
X0013328Y0196652D01*
X0013348Y0196994D01*
X0013377Y0197336D01*
X0013414Y0197677D01*
X0013460Y0198017D01*
X0013514Y0198356D01*
X0013575Y0198693D01*
X0013645Y0199029D01*
X0013723Y0199363D01*
X0013810Y0199695D01*
X0013904Y0200025D01*
X0014006Y0200352D01*
X0014116Y0200677D01*
X0014233Y0201000D01*
X0014359Y0201319D01*
X0014492Y0201635D01*
X0014633Y0201948D01*
X0014781Y0202257D01*
X0014937Y0202563D01*
X0015100Y0202865D01*
X0015270Y0203162D01*
X0015448Y0203456D01*
X0015632Y0203745D01*
X0015824Y0204030D01*
X0016022Y0204310D01*
X0016227Y0204585D01*
X0016439Y0204855D01*
X0016657Y0205120D01*
X0016881Y0205379D01*
X0017111Y0205633D01*
X0017348Y0205881D01*
X0017591Y0206124D01*
X0017839Y0206361D01*
X0018093Y0206591D01*
X0018352Y0206815D01*
X0018617Y0207033D01*
X0018887Y0207245D01*
X0019162Y0207450D01*
X0019442Y0207648D01*
X0019727Y0207840D01*
X0020016Y0208024D01*
X0020310Y0208202D01*
X0020607Y0208372D01*
X0020909Y0208535D01*
X0021215Y0208691D01*
X0021524Y0208839D01*
X0021837Y0208980D01*
X0022153Y0209113D01*
X0022472Y0209239D01*
X0022795Y0209356D01*
X0023120Y0209466D01*
X0023447Y0209568D01*
X0023777Y0209662D01*
X0024109Y0209749D01*
X0024443Y0209827D01*
X0024779Y0209897D01*
X0025116Y0209958D01*
X0025455Y0210012D01*
X0025795Y0210058D01*
X0026136Y0210095D01*
X0026478Y0210124D01*
X0026820Y0210144D01*
X0027163Y0210157D01*
X0027506Y0210161D01*
X0195966Y0210161D01*
X0196309Y0210157D01*
X0196652Y0210144D01*
X0196994Y0210124D01*
X0197336Y0210095D01*
X0197677Y0210058D01*
X0198017Y0210012D01*
X0198356Y0209958D01*
X0198693Y0209897D01*
X0199029Y0209827D01*
X0199363Y0209749D01*
X0199695Y0209662D01*
X0200025Y0209568D01*
X0200352Y0209466D01*
X0200677Y0209356D01*
X0201000Y0209239D01*
X0201319Y0209113D01*
X0201635Y0208980D01*
X0201948Y0208839D01*
X0202257Y0208691D01*
X0202563Y0208535D01*
X0202865Y0208372D01*
X0203162Y0208202D01*
X0203456Y0208024D01*
X0203745Y0207840D01*
X0204030Y0207648D01*
X0204310Y0207450D01*
X0204585Y0207245D01*
X0204855Y0207033D01*
X0205120Y0206815D01*
X0205379Y0206591D01*
X0205633Y0206361D01*
X0205881Y0206124D01*
X0206124Y0205881D01*
X0206361Y0205633D01*
X0206591Y0205379D01*
X0206815Y0205120D01*
X0207033Y0204855D01*
X0207245Y0204585D01*
X0207450Y0204310D01*
X0207648Y0204030D01*
X0207840Y0203745D01*
X0208024Y0203456D01*
X0208202Y0203162D01*
X0208372Y0202865D01*
X0208535Y0202563D01*
X0208691Y0202257D01*
X0208839Y0201948D01*
X0208980Y0201635D01*
X0209113Y0201319D01*
X0209239Y0201000D01*
X0209356Y0200677D01*
X0209466Y0200352D01*
X0209568Y0200025D01*
X0209662Y0199695D01*
X0209749Y0199363D01*
X0209827Y0199029D01*
X0209897Y0198693D01*
X0209958Y0198356D01*
X0210012Y0198017D01*
X0210058Y0197677D01*
X0210095Y0197336D01*
X0210124Y0196994D01*
X0210144Y0196652D01*
X0210157Y0196309D01*
X0210161Y0195966D01*
X0210161Y0027506D01*
X0210157Y0027163D01*
X0210144Y0026820D01*
X0210124Y0026478D01*
X0210095Y0026136D01*
X0210058Y0025795D01*
X0210012Y0025455D01*
X0209958Y0025116D01*
X0209897Y0024779D01*
X0209827Y0024443D01*
X0209749Y0024109D01*
X0209662Y0023777D01*
X0209568Y0023447D01*
X0209466Y0023120D01*
X0209356Y0022795D01*
X0209239Y0022472D01*
X0209113Y0022153D01*
X0208980Y0021837D01*
X0208839Y0021524D01*
X0208691Y0021215D01*
X0208535Y0020909D01*
X0208372Y0020607D01*
X0208202Y0020310D01*
X0208024Y0020016D01*
X0207840Y0019727D01*
X0207648Y0019442D01*
X0207450Y0019162D01*
X0207245Y0018887D01*
X0207033Y0018617D01*
X0206815Y0018352D01*
X0206591Y0018093D01*
X0206361Y0017839D01*
X0206124Y0017591D01*
X0205881Y0017348D01*
X0205633Y0017111D01*
X0205379Y0016881D01*
X0205120Y0016657D01*
X0204855Y0016439D01*
X0204585Y0016227D01*
X0204310Y0016022D01*
X0204030Y0015824D01*
X0203745Y0015632D01*
X0203456Y0015448D01*
X0203162Y0015270D01*
X0202865Y0015100D01*
X0202563Y0014937D01*
X0202257Y0014781D01*
X0201948Y0014633D01*
X0201635Y0014492D01*
X0201319Y0014359D01*
X0201000Y0014233D01*
X0200677Y0014116D01*
X0200352Y0014006D01*
X0200025Y0013904D01*
X0199695Y0013810D01*
X0199363Y0013723D01*
X0199029Y0013645D01*
X0198693Y0013575D01*
X0198356Y0013514D01*
X0198017Y0013460D01*
X0197677Y0013414D01*
X0197336Y0013377D01*
X0196994Y0013348D01*
X0196652Y0013328D01*
X0196309Y0013315D01*
X0195966Y0013311D01*
X0027506Y0013311D01*
X0027163Y0013315D01*
X0026820Y0013328D01*
X0026478Y0013348D01*
X0026136Y0013377D01*
X0025795Y0013414D01*
X0025455Y0013460D01*
X0025116Y0013514D01*
X0024779Y0013575D01*
X0024443Y0013645D01*
X0024109Y0013723D01*
X0023777Y0013810D01*
X0023447Y0013904D01*
X0023120Y0014006D01*
X0022795Y0014116D01*
X0022472Y0014233D01*
X0022153Y0014359D01*
X0021837Y0014492D01*
X0021524Y0014633D01*
X0021215Y0014781D01*
X0020909Y0014937D01*
X0020607Y0015100D01*
X0020310Y0015270D01*
X0020016Y0015448D01*
X0019727Y0015632D01*
X0019442Y0015824D01*
X0019162Y0016022D01*
X0018887Y0016227D01*
X0018617Y0016439D01*
X0018352Y0016657D01*
X0018093Y0016881D01*
X0017839Y0017111D01*
X0017591Y0017348D01*
X0017348Y0017591D01*
X0017111Y0017839D01*
X0016881Y0018093D01*
X0016657Y0018352D01*
X0016439Y0018617D01*
X0016227Y0018887D01*
X0016022Y0019162D01*
X0015824Y0019442D01*
X0015632Y0019727D01*
X0015448Y0020016D01*
X0015270Y0020310D01*
X0015100Y0020607D01*
X0014937Y0020909D01*
X0014781Y0021215D01*
X0014633Y0021524D01*
X0014492Y0021837D01*
X0014359Y0022153D01*
X0014233Y0022472D01*
X0014116Y0022795D01*
X0014006Y0023120D01*
X0013904Y0023447D01*
X0013810Y0023777D01*
X0013723Y0024109D01*
X0013645Y0024443D01*
X0013575Y0024779D01*
X0013514Y0025116D01*
X0013460Y0025455D01*
X0013414Y0025795D01*
X0013377Y0026136D01*
X0013348Y0026478D01*
X0013328Y0026820D01*
X0013315Y0027163D01*
X0013311Y0027506D01*
M02*
