%
M48
M72
T01C0.0320
T02C0.0354
T03C0.0394
T04C0.0512
T05C0.1260
%
T01
X9674Y3674
X9674Y4674
X9674Y5674
X9674Y6674
X12674Y6674
X12674Y5674
X12674Y4674
X12674Y3674
X12674Y10674
X12674Y11674
X9674Y11674
X9674Y10674
X5674Y10674
X5674Y11674
X2674Y11674
X2674Y10674
X16674Y10674
X16674Y11674
X19674Y11674
X19674Y10674
T02
X17674Y5674
X17674Y4674
X17674Y3674
X13674Y3674
X13674Y4674
X13674Y5674
X8674Y5674
X8674Y6674
X8674Y4674
X4674Y4674
X4674Y5674
X4674Y6674
T03
X2512Y5268
X5268Y2512
X17079Y2512
X19835Y5268
X19835Y17079
X17079Y19835
X5268Y19835
X2512Y17079
T04
X7237Y16489
X15111Y16489
T05
X3300Y3300
X3300Y19048
X19048Y19048
X19048Y3300
M30
