G75*
%MOIN*%
%OFA0B0*%
%FSLAX25Y25*%
%IPPOS*%
%LPD*%
%AMOC8*
5,1,8,0,0,1.08239X$1,22.5*
%
%ADD10C,0.00000*%
%ADD11C,0.01000*%
%ADD12R,0.01500X0.00500*%
%ADD13R,0.00500X0.00500*%
%ADD14R,0.07500X0.00500*%
%ADD15R,0.08000X0.00500*%
%ADD16R,0.01000X0.00500*%
%ADD17R,0.02000X0.00500*%
%ADD18R,0.05000X0.00500*%
%ADD19R,0.04500X0.00500*%
%ADD20R,0.04000X0.00500*%
%ADD21R,0.07000X0.00500*%
%ADD22R,0.10000X0.00500*%
%ADD23R,0.06500X0.00500*%
%ADD24R,0.03000X0.00500*%
%ADD25R,0.02500X0.00500*%
%ADD26R,0.59500X0.00500*%
%ADD27R,0.79000X0.00500*%
%ADD28R,0.10500X0.00500*%
%ADD29R,0.12000X0.00500*%
D10*
X0013311Y0027506D02*
X0013311Y0195966D01*
X0013315Y0196309D01*
X0013328Y0196652D01*
X0013348Y0196994D01*
X0013377Y0197336D01*
X0013414Y0197677D01*
X0013460Y0198017D01*
X0013514Y0198356D01*
X0013575Y0198693D01*
X0013645Y0199029D01*
X0013723Y0199363D01*
X0013810Y0199695D01*
X0013904Y0200025D01*
X0014006Y0200352D01*
X0014116Y0200677D01*
X0014233Y0201000D01*
X0014359Y0201319D01*
X0014492Y0201635D01*
X0014633Y0201948D01*
X0014781Y0202257D01*
X0014937Y0202563D01*
X0015100Y0202865D01*
X0015270Y0203162D01*
X0015448Y0203456D01*
X0015632Y0203745D01*
X0015824Y0204030D01*
X0016022Y0204310D01*
X0016227Y0204585D01*
X0016439Y0204855D01*
X0016657Y0205120D01*
X0016881Y0205379D01*
X0017111Y0205633D01*
X0017348Y0205881D01*
X0017591Y0206124D01*
X0017839Y0206361D01*
X0018093Y0206591D01*
X0018352Y0206815D01*
X0018617Y0207033D01*
X0018887Y0207245D01*
X0019162Y0207450D01*
X0019442Y0207648D01*
X0019727Y0207840D01*
X0020016Y0208024D01*
X0020310Y0208202D01*
X0020607Y0208372D01*
X0020909Y0208535D01*
X0021215Y0208691D01*
X0021524Y0208839D01*
X0021837Y0208980D01*
X0022153Y0209113D01*
X0022472Y0209239D01*
X0022795Y0209356D01*
X0023120Y0209466D01*
X0023447Y0209568D01*
X0023777Y0209662D01*
X0024109Y0209749D01*
X0024443Y0209827D01*
X0024779Y0209897D01*
X0025116Y0209958D01*
X0025455Y0210012D01*
X0025795Y0210058D01*
X0026136Y0210095D01*
X0026478Y0210124D01*
X0026820Y0210144D01*
X0027163Y0210157D01*
X0027506Y0210161D01*
X0195966Y0210161D01*
X0196309Y0210157D01*
X0196652Y0210144D01*
X0196994Y0210124D01*
X0197336Y0210095D01*
X0197677Y0210058D01*
X0198017Y0210012D01*
X0198356Y0209958D01*
X0198693Y0209897D01*
X0199029Y0209827D01*
X0199363Y0209749D01*
X0199695Y0209662D01*
X0200025Y0209568D01*
X0200352Y0209466D01*
X0200677Y0209356D01*
X0201000Y0209239D01*
X0201319Y0209113D01*
X0201635Y0208980D01*
X0201948Y0208839D01*
X0202257Y0208691D01*
X0202563Y0208535D01*
X0202865Y0208372D01*
X0203162Y0208202D01*
X0203456Y0208024D01*
X0203745Y0207840D01*
X0204030Y0207648D01*
X0204310Y0207450D01*
X0204585Y0207245D01*
X0204855Y0207033D01*
X0205120Y0206815D01*
X0205379Y0206591D01*
X0205633Y0206361D01*
X0205881Y0206124D01*
X0206124Y0205881D01*
X0206361Y0205633D01*
X0206591Y0205379D01*
X0206815Y0205120D01*
X0207033Y0204855D01*
X0207245Y0204585D01*
X0207450Y0204310D01*
X0207648Y0204030D01*
X0207840Y0203745D01*
X0208024Y0203456D01*
X0208202Y0203162D01*
X0208372Y0202865D01*
X0208535Y0202563D01*
X0208691Y0202257D01*
X0208839Y0201948D01*
X0208980Y0201635D01*
X0209113Y0201319D01*
X0209239Y0201000D01*
X0209356Y0200677D01*
X0209466Y0200352D01*
X0209568Y0200025D01*
X0209662Y0199695D01*
X0209749Y0199363D01*
X0209827Y0199029D01*
X0209897Y0198693D01*
X0209958Y0198356D01*
X0210012Y0198017D01*
X0210058Y0197677D01*
X0210095Y0197336D01*
X0210124Y0196994D01*
X0210144Y0196652D01*
X0210157Y0196309D01*
X0210161Y0195966D01*
X0210161Y0027506D01*
X0210157Y0027163D01*
X0210144Y0026820D01*
X0210124Y0026478D01*
X0210095Y0026136D01*
X0210058Y0025795D01*
X0210012Y0025455D01*
X0209958Y0025116D01*
X0209897Y0024779D01*
X0209827Y0024443D01*
X0209749Y0024109D01*
X0209662Y0023777D01*
X0209568Y0023447D01*
X0209466Y0023120D01*
X0209356Y0022795D01*
X0209239Y0022472D01*
X0209113Y0022153D01*
X0208980Y0021837D01*
X0208839Y0021524D01*
X0208691Y0021215D01*
X0208535Y0020909D01*
X0208372Y0020607D01*
X0208202Y0020310D01*
X0208024Y0020016D01*
X0207840Y0019727D01*
X0207648Y0019442D01*
X0207450Y0019162D01*
X0207245Y0018887D01*
X0207033Y0018617D01*
X0206815Y0018352D01*
X0206591Y0018093D01*
X0206361Y0017839D01*
X0206124Y0017591D01*
X0205881Y0017348D01*
X0205633Y0017111D01*
X0205379Y0016881D01*
X0205120Y0016657D01*
X0204855Y0016439D01*
X0204585Y0016227D01*
X0204310Y0016022D01*
X0204030Y0015824D01*
X0203745Y0015632D01*
X0203456Y0015448D01*
X0203162Y0015270D01*
X0202865Y0015100D01*
X0202563Y0014937D01*
X0202257Y0014781D01*
X0201948Y0014633D01*
X0201635Y0014492D01*
X0201319Y0014359D01*
X0201000Y0014233D01*
X0200677Y0014116D01*
X0200352Y0014006D01*
X0200025Y0013904D01*
X0199695Y0013810D01*
X0199363Y0013723D01*
X0199029Y0013645D01*
X0198693Y0013575D01*
X0198356Y0013514D01*
X0198017Y0013460D01*
X0197677Y0013414D01*
X0197336Y0013377D01*
X0196994Y0013348D01*
X0196652Y0013328D01*
X0196309Y0013315D01*
X0195966Y0013311D01*
X0027506Y0013311D01*
X0027163Y0013315D01*
X0026820Y0013328D01*
X0026478Y0013348D01*
X0026136Y0013377D01*
X0025795Y0013414D01*
X0025455Y0013460D01*
X0025116Y0013514D01*
X0024779Y0013575D01*
X0024443Y0013645D01*
X0024109Y0013723D01*
X0023777Y0013810D01*
X0023447Y0013904D01*
X0023120Y0014006D01*
X0022795Y0014116D01*
X0022472Y0014233D01*
X0022153Y0014359D01*
X0021837Y0014492D01*
X0021524Y0014633D01*
X0021215Y0014781D01*
X0020909Y0014937D01*
X0020607Y0015100D01*
X0020310Y0015270D01*
X0020016Y0015448D01*
X0019727Y0015632D01*
X0019442Y0015824D01*
X0019162Y0016022D01*
X0018887Y0016227D01*
X0018617Y0016439D01*
X0018352Y0016657D01*
X0018093Y0016881D01*
X0017839Y0017111D01*
X0017591Y0017348D01*
X0017348Y0017591D01*
X0017111Y0017839D01*
X0016881Y0018093D01*
X0016657Y0018352D01*
X0016439Y0018617D01*
X0016227Y0018887D01*
X0016022Y0019162D01*
X0015824Y0019442D01*
X0015632Y0019727D01*
X0015448Y0020016D01*
X0015270Y0020310D01*
X0015100Y0020607D01*
X0014937Y0020909D01*
X0014781Y0021215D01*
X0014633Y0021524D01*
X0014492Y0021837D01*
X0014359Y0022153D01*
X0014233Y0022472D01*
X0014116Y0022795D01*
X0014006Y0023120D01*
X0013904Y0023447D01*
X0013810Y0023777D01*
X0013723Y0024109D01*
X0013645Y0024443D01*
X0013575Y0024779D01*
X0013514Y0025116D01*
X0013460Y0025455D01*
X0013414Y0025795D01*
X0013377Y0026136D01*
X0013348Y0026478D01*
X0013328Y0026820D01*
X0013315Y0027163D01*
X0013311Y0027506D01*
D11*
X0001500Y0111736D02*
X0001533Y0114441D01*
X0001633Y0117145D01*
X0001799Y0119845D01*
X0002031Y0122541D01*
X0002329Y0125230D01*
X0002693Y0127911D01*
X0003123Y0130582D01*
X0003618Y0133242D01*
X0004178Y0135889D01*
X0004804Y0138521D01*
X0005493Y0141137D01*
X0006247Y0143736D01*
X0007064Y0146315D01*
X0007944Y0148873D01*
X0008887Y0151409D01*
X0009891Y0153921D01*
X0010957Y0156408D01*
X0012084Y0158868D01*
X0013271Y0161299D01*
X0014517Y0163701D01*
X0015821Y0166071D01*
X0017183Y0168409D01*
X0018603Y0170712D01*
X0020078Y0172980D01*
X0021609Y0175211D01*
X0023194Y0177404D01*
X0024832Y0179557D01*
X0026522Y0181669D01*
X0028264Y0183739D01*
X0030057Y0185766D01*
X0031898Y0187748D01*
X0033787Y0189685D01*
X0035724Y0191574D01*
X0037706Y0193415D01*
X0039733Y0195208D01*
X0041803Y0196950D01*
X0043915Y0198640D01*
X0046068Y0200278D01*
X0048261Y0201863D01*
X0050492Y0203394D01*
X0052760Y0204869D01*
X0055063Y0206289D01*
X0057401Y0207651D01*
X0059771Y0208955D01*
X0062173Y0210201D01*
X0064604Y0211388D01*
X0067064Y0212515D01*
X0069551Y0213581D01*
X0072063Y0214585D01*
X0074599Y0215528D01*
X0077157Y0216408D01*
X0079736Y0217225D01*
X0082335Y0217979D01*
X0084951Y0218668D01*
X0087583Y0219294D01*
X0090230Y0219854D01*
X0092890Y0220349D01*
X0095561Y0220779D01*
X0098242Y0221143D01*
X0100931Y0221441D01*
X0103627Y0221673D01*
X0106327Y0221839D01*
X0109031Y0221939D01*
X0111736Y0221972D01*
X0114441Y0221939D01*
X0117145Y0221839D01*
X0119845Y0221673D01*
X0122541Y0221441D01*
X0125230Y0221143D01*
X0127911Y0220779D01*
X0130582Y0220349D01*
X0133242Y0219854D01*
X0135889Y0219294D01*
X0138521Y0218668D01*
X0141137Y0217979D01*
X0143736Y0217225D01*
X0146315Y0216408D01*
X0148873Y0215528D01*
X0151409Y0214585D01*
X0153921Y0213581D01*
X0156408Y0212515D01*
X0158868Y0211388D01*
X0161299Y0210201D01*
X0163701Y0208955D01*
X0166071Y0207651D01*
X0168409Y0206289D01*
X0170712Y0204869D01*
X0172980Y0203394D01*
X0175211Y0201863D01*
X0177404Y0200278D01*
X0179557Y0198640D01*
X0181669Y0196950D01*
X0183739Y0195208D01*
X0185766Y0193415D01*
X0187748Y0191574D01*
X0189685Y0189685D01*
X0191574Y0187748D01*
X0193415Y0185766D01*
X0195208Y0183739D01*
X0196950Y0181669D01*
X0198640Y0179557D01*
X0200278Y0177404D01*
X0201863Y0175211D01*
X0203394Y0172980D01*
X0204869Y0170712D01*
X0206289Y0168409D01*
X0207651Y0166071D01*
X0208955Y0163701D01*
X0210201Y0161299D01*
X0211388Y0158868D01*
X0212515Y0156408D01*
X0213581Y0153921D01*
X0214585Y0151409D01*
X0215528Y0148873D01*
X0216408Y0146315D01*
X0217225Y0143736D01*
X0217979Y0141137D01*
X0218668Y0138521D01*
X0219294Y0135889D01*
X0219854Y0133242D01*
X0220349Y0130582D01*
X0220779Y0127911D01*
X0221143Y0125230D01*
X0221441Y0122541D01*
X0221673Y0119845D01*
X0221839Y0117145D01*
X0221939Y0114441D01*
X0221972Y0111736D01*
X0221939Y0109031D01*
X0221839Y0106327D01*
X0221673Y0103627D01*
X0221441Y0100931D01*
X0221143Y0098242D01*
X0220779Y0095561D01*
X0220349Y0092890D01*
X0219854Y0090230D01*
X0219294Y0087583D01*
X0218668Y0084951D01*
X0217979Y0082335D01*
X0217225Y0079736D01*
X0216408Y0077157D01*
X0215528Y0074599D01*
X0214585Y0072063D01*
X0213581Y0069551D01*
X0212515Y0067064D01*
X0211388Y0064604D01*
X0210201Y0062173D01*
X0208955Y0059771D01*
X0207651Y0057401D01*
X0206289Y0055063D01*
X0204869Y0052760D01*
X0203394Y0050492D01*
X0201863Y0048261D01*
X0200278Y0046068D01*
X0198640Y0043915D01*
X0196950Y0041803D01*
X0195208Y0039733D01*
X0193415Y0037706D01*
X0191574Y0035724D01*
X0189685Y0033787D01*
X0187748Y0031898D01*
X0185766Y0030057D01*
X0183739Y0028264D01*
X0181669Y0026522D01*
X0179557Y0024832D01*
X0177404Y0023194D01*
X0175211Y0021609D01*
X0172980Y0020078D01*
X0170712Y0018603D01*
X0168409Y0017183D01*
X0166071Y0015821D01*
X0163701Y0014517D01*
X0161299Y0013271D01*
X0158868Y0012084D01*
X0156408Y0010957D01*
X0153921Y0009891D01*
X0151409Y0008887D01*
X0148873Y0007944D01*
X0146315Y0007064D01*
X0143736Y0006247D01*
X0141137Y0005493D01*
X0138521Y0004804D01*
X0135889Y0004178D01*
X0133242Y0003618D01*
X0130582Y0003123D01*
X0127911Y0002693D01*
X0125230Y0002329D01*
X0122541Y0002031D01*
X0119845Y0001799D01*
X0117145Y0001633D01*
X0114441Y0001533D01*
X0111736Y0001500D01*
X0109031Y0001533D01*
X0106327Y0001633D01*
X0103627Y0001799D01*
X0100931Y0002031D01*
X0098242Y0002329D01*
X0095561Y0002693D01*
X0092890Y0003123D01*
X0090230Y0003618D01*
X0087583Y0004178D01*
X0084951Y0004804D01*
X0082335Y0005493D01*
X0079736Y0006247D01*
X0077157Y0007064D01*
X0074599Y0007944D01*
X0072063Y0008887D01*
X0069551Y0009891D01*
X0067064Y0010957D01*
X0064604Y0012084D01*
X0062173Y0013271D01*
X0059771Y0014517D01*
X0057401Y0015821D01*
X0055063Y0017183D01*
X0052760Y0018603D01*
X0050492Y0020078D01*
X0048261Y0021609D01*
X0046068Y0023194D01*
X0043915Y0024832D01*
X0041803Y0026522D01*
X0039733Y0028264D01*
X0037706Y0030057D01*
X0035724Y0031898D01*
X0033787Y0033787D01*
X0031898Y0035724D01*
X0030057Y0037706D01*
X0028264Y0039733D01*
X0026522Y0041803D01*
X0024832Y0043915D01*
X0023194Y0046068D01*
X0021609Y0048261D01*
X0020078Y0050492D01*
X0018603Y0052760D01*
X0017183Y0055063D01*
X0015821Y0057401D01*
X0014517Y0059771D01*
X0013271Y0062173D01*
X0012084Y0064604D01*
X0010957Y0067064D01*
X0009891Y0069551D01*
X0008887Y0072063D01*
X0007944Y0074599D01*
X0007064Y0077157D01*
X0006247Y0079736D01*
X0005493Y0082335D01*
X0004804Y0084951D01*
X0004178Y0087583D01*
X0003618Y0090230D01*
X0003123Y0092890D01*
X0002693Y0095561D01*
X0002329Y0098242D01*
X0002031Y0100931D01*
X0001799Y0103627D01*
X0001633Y0106327D01*
X0001533Y0109031D01*
X0001500Y0111736D01*
D12*
X0118413Y0134421D03*
X0118413Y0134921D03*
X0118413Y0135421D03*
X0118413Y0140421D03*
X0118413Y0140921D03*
X0118413Y0141421D03*
X0118413Y0141921D03*
X0118413Y0142421D03*
X0118413Y0142921D03*
X0118413Y0143421D03*
X0118413Y0143921D03*
X0118413Y0144421D03*
X0118413Y0146421D03*
X0118413Y0146921D03*
X0118413Y0147421D03*
X0118413Y0147921D03*
X0118413Y0148421D03*
X0118413Y0148921D03*
X0118413Y0149421D03*
X0118413Y0149921D03*
X0118413Y0150421D03*
X0122413Y0152421D03*
X0118413Y0155421D03*
X0118413Y0155921D03*
X0118413Y0156421D03*
X0122413Y0138421D03*
X0173913Y0152421D03*
X0176413Y0152921D03*
X0176413Y0153421D03*
X0176413Y0153921D03*
X0182413Y0155421D03*
X0182413Y0155921D03*
X0182413Y0156421D03*
X0182413Y0150421D03*
X0182413Y0149921D03*
X0182413Y0149421D03*
X0182413Y0148921D03*
X0182413Y0148421D03*
X0182413Y0147921D03*
X0182413Y0147421D03*
X0185913Y0141921D03*
X0185913Y0141421D03*
X0185913Y0140921D03*
X0185913Y0140421D03*
X0188413Y0137921D03*
X0188413Y0137421D03*
X0188413Y0136921D03*
X0185913Y0135421D03*
X0185913Y0134921D03*
X0185913Y0134421D03*
X0190913Y0138421D03*
D13*
X0190913Y0135921D03*
X0187913Y0151421D03*
X0187913Y0151921D03*
X0187913Y0152421D03*
X0187913Y0152921D03*
X0187913Y0153421D03*
X0187913Y0153921D03*
X0173913Y0154921D03*
X0122413Y0154921D03*
X0112413Y0153921D03*
X0112413Y0153421D03*
X0112413Y0152921D03*
X0112413Y0152421D03*
X0112413Y0151921D03*
X0112413Y0151421D03*
X0112413Y0150921D03*
X0112413Y0139421D03*
X0112413Y0138921D03*
X0112413Y0138421D03*
X0112413Y0137921D03*
X0112413Y0137421D03*
X0112413Y0136921D03*
X0122413Y0135921D03*
D14*
X0185413Y0135921D03*
X0185913Y0142421D03*
X0185413Y0142921D03*
D15*
X0185663Y0143421D03*
X0116663Y0135921D03*
X0116663Y0154921D03*
D16*
X0112663Y0154421D03*
X0122663Y0154421D03*
X0122663Y0153921D03*
X0122663Y0153421D03*
X0122663Y0152921D03*
X0122663Y0137921D03*
X0122663Y0137421D03*
X0122663Y0136921D03*
X0122663Y0136421D03*
X0112663Y0136421D03*
X0173663Y0152921D03*
X0173663Y0153421D03*
X0173663Y0153921D03*
X0173663Y0154421D03*
X0187663Y0154421D03*
X0191163Y0137921D03*
X0191163Y0137421D03*
X0191163Y0136921D03*
X0191163Y0136421D03*
D17*
X0188163Y0136421D03*
X0188663Y0138421D03*
X0176163Y0152421D03*
X0176663Y0154421D03*
D18*
X0118663Y0152421D03*
X0118163Y0154421D03*
X0118663Y0138421D03*
X0118163Y0136421D03*
D19*
X0118413Y0136921D03*
X0118413Y0137421D03*
X0118413Y0137921D03*
X0118413Y0152921D03*
X0118413Y0153421D03*
X0118413Y0153921D03*
X0175413Y0151421D03*
X0189413Y0139421D03*
D20*
X0189663Y0138921D03*
X0175163Y0151921D03*
D21*
X0119663Y0151921D03*
X0119663Y0151421D03*
X0119663Y0139421D03*
X0119663Y0138921D03*
D22*
X0186163Y0139921D03*
D23*
X0119413Y0139921D03*
X0119413Y0150921D03*
D24*
X0191663Y0143421D03*
X0191663Y0142421D03*
D25*
X0191913Y0142921D03*
D26*
X0147413Y0144921D03*
X0147413Y0145421D03*
X0147413Y0145921D03*
D27*
X0064663Y0145921D03*
X0064663Y0145421D03*
X0064663Y0144921D03*
D28*
X0178913Y0150921D03*
D29*
X0181663Y0154921D03*
M02*
